{
    "chords": [
        {
            "chord_name": "G#maj7",
            "end_time": 0.09287981859410431,
            "start_time": 0.0
        },
        {
            "chord_name": "C",
            "end_time": 7.151746031746032,
            "start_time": 0.09287981859410431
        },
        {
            "chord_name": "Fmaj7",
            "end_time": 11.795736961451247,
            "start_time": 7.151746031746032
        },
        {
            "chord_name": "C#maj7",
            "end_time": 15.232290249433106,
            "start_time": 11.795736961451247
        },
        {
            "chord_name": "C",
            "end_time": 18.854603174603174,
            "start_time": 15.232290249433106
        },
        {
            "chord_name": "Fmaj7",
            "end_time": 22.569795918367348,
            "start_time": 18.854603174603174
        },
        {
            "chord_name": "A#",
            "end_time": 26.470748299319727,
            "start_time": 22.569795918367348
        },
        {
            "chord_name": "C",
            "end_time": 29.257142857142856,
            "start_time": 26.470748299319727
        },
        {
            "chord_name": "Fmaj7",
            "end_time": 33.62249433106576,
            "start_time": 29.257142857142856
        },
        {
            "chord_name": "A#",
            "end_time": 46.90430839002268,
            "start_time": 33.62249433106576
        },
        {
            "chord_name": "Fmaj7",
            "end_time": 49.13342403628118,
            "start_time": 46.90430839002268
        },
        {
            "chord_name": "F",
            "end_time": 49.783582766439906,
            "start_time": 49.13342403628118
        },
        {
            "chord_name": "Fmaj7",
            "end_time": 55.82077097505669,
            "start_time": 49.783582766439906
        },
        {
            "chord_name": "Gm7",
            "end_time": 56.65668934240363,
            "start_time": 55.82077097505669
        },
        {
            "chord_name": "C",
            "end_time": 61.486439909297054,
            "start_time": 56.65668934240363
        }
    ],
    "metadata": {
        "bpm": 123.05,
        "brightness_spectral_centroid": 1556.43,
        "duration_seconds": 61.5413125,
        "estimated_key": "F major",
        "loudness_rms": 0.1226
    },
    "notes": {
        "bass": [
            {
                "end": 61.11860770975056,
                "pitch": 53,
                "start": 60.68903854875283,
                "velocity": 0.544484555721283
            },
            {
                "end": 56.30950929705215,
                "pitch": 65,
                "start": 56.007649886621316,
                "velocity": 0.4626399278640747
            },
            {
                "end": 54.84536825396826,
                "pitch": 62,
                "start": 54.7060485260771,
                "velocity": 0.4817951023578644
            },
            {
                "end": 49.85051020408163,
                "pitch": 53,
                "start": 49.54736689342404,
                "velocity": 0.6032501459121704
            },
            {
                "end": 49.54736689342404,
                "pitch": 53,
                "start": 49.21067755102041,
                "velocity": 0.3957783281803131
            },
            {
                "end": 48.04967981859411,
                "pitch": 37,
                "start": 47.817480272108845,
                "velocity": 0.5862778425216675
            },
            {
                "end": 47.78265034013606,
                "pitch": 39,
                "start": 47.54916689342404,
                "velocity": 0.6706111431121826
            },
            {
                "end": 47.54916689342404,
                "pitch": 40,
                "start": 47.38662721088435,
                "velocity": 0.7068156003952026
            },
            {
                "end": 45.92377006802721,
                "pitch": 62,
                "start": 45.66706666666667,
                "velocity": 0.535906195640564
            },
            {
                "end": 45.3419873015873,
                "pitch": 62,
                "start": 45.191057596371884,
                "velocity": 0.5259098410606384
            },
            {
                "end": 43.29734739229025,
                "pitch": 65,
                "start": 43.08836780045351,
                "velocity": 0.6132367849349976
            },
            {
                "end": 42.11312970521542,
                "pitch": 53,
                "start": 41.4732970521542,
                "velocity": 0.42833980917930603
            },
            {
                "end": 40.79991836734694,
                "pitch": 65,
                "start": 40.625768707483,
                "velocity": 0.4666680693626404
            },
            {
                "end": 40.79991836734694,
                "pitch": 53,
                "start": 40.48644897959184,
                "velocity": 0.5537679195404053
            },
            {
                "end": 40.21941950113379,
                "pitch": 53,
                "start": 40.010439909297055,
                "velocity": 0.4776962101459503
            },
            {
                "end": 39.567976870748296,
                "pitch": 53,
                "start": 39.20806757369615,
                "velocity": 0.3988870084285736
            },
            {
                "end": 39.20806757369615,
                "pitch": 53,
                "start": 39.06874784580499,
                "velocity": 0.5242407321929932
            },
            {
                "end": 38.87137823129252,
                "pitch": 69,
                "start": 38.73205850340136,
                "velocity": 0.43519219756126404
            },
            {
                "end": 38.73205850340136,
                "pitch": 69,
                "start": 38.56951882086168,
                "velocity": 0.3093717098236084
            },
            {
                "end": 38.62756870748299,
                "pitch": 53,
                "start": 38.314099319727895,
                "velocity": 0.4784500002861023
            },
            {
                "end": 36.942838095238095,
                "pitch": 55,
                "start": 36.62936870748299,
                "velocity": 0.5698399543762207
            },
            {
                "end": 36.31589931972789,
                "pitch": 43,
                "start": 36.1533596371882,
                "velocity": 0.4797396957874298
            },
            {
                "end": 36.281069387755096,
                "pitch": 67,
                "start": 36.14174965986394,
                "velocity": 0.47175514698028564
            },
            {
                "end": 36.39716916099773,
                "pitch": 55,
                "start": 36.14174965986394,
                "velocity": 0.4928598701953888
            },
            {
                "end": 35.75733650793651,
                "pitch": 82,
                "start": 35.3509873015873,
                "velocity": 0.3766763210296631
            },
            {
                "end": 35.851500226757366,
                "pitch": 58,
                "start": 35.33937732426304,
                "velocity": 0.432602196931839
            },
            {
                "end": 35.246497505668934,
                "pitch": 82,
                "start": 34.85175827664399,
                "velocity": 0.6180418729782104
            },
            {
                "end": 35.28132743764172,
                "pitch": 70,
                "start": 34.36413922902494,
                "velocity": 0.5211683511734009
            },
            {
                "end": 34.30608934240363,
                "pitch": 82,
                "start": 34.166769614512475,
                "velocity": 0.4468173086643219
            },
            {
                "end": 34.22481950113379,
                "pitch": 65,
                "start": 34.06227981859411,
                "velocity": 0.46052494645118713
            },
            {
                "end": 34.189989569161,
                "pitch": 62,
                "start": 34.050669841269844,
                "velocity": 0.5504698157310486
            },
            {
                "end": 33.830080272108844,
                "pitch": 65,
                "start": 33.5733768707483,
                "velocity": 0.4412364959716797
            },
            {
                "end": 31.168827664399092,
                "pitch": 53,
                "start": 30.983068027210884,
                "velocity": 0.38454103469848633
            },
            {
                "end": 30.35612925170068,
                "pitch": 65,
                "start": 30.181979591836733,
                "velocity": 0.47097161412239075
            },
            {
                "end": 30.95984807256236,
                "pitch": 53,
                "start": 30.181979591836733,
                "velocity": 0.5380848050117493
            },
            {
                "end": 29.880120181405896,
                "pitch": 53,
                "start": 28.89198820861678,
                "velocity": 0.44767552614212036
            },
            {
                "end": 27.93997006802721,
                "pitch": 55,
                "start": 27.601996825396824,
                "velocity": 0.5168157815933228
            },
            {
                "end": 27.532336961451247,
                "pitch": 55,
                "start": 27.11437777777778,
                "velocity": 0.5591816306114197
            },
            {
                "end": 27.11437777777778,
                "pitch": 55,
                "start": 26.40616916099773,
                "velocity": 0.49414461851119995
            },
            {
                "end": 26.54548888888889,
                "pitch": 67,
                "start": 26.31328934240363,
                "velocity": 0.3441637456417084
            },
            {
                "end": 24.74465850340136,
                "pitch": 58,
                "start": 24.46601904761905,
                "velocity": 0.3444760739803314
            },
            {
                "end": 24.32669931972789,
                "pitch": 58,
                "start": 24.04805986394558,
                "velocity": 0.5231234431266785
            },
            {
                "end": 24.05966984126984,
                "pitch": 62,
                "start": 23.744916553287982,
                "velocity": 0.4893951117992401
            },
            {
                "end": 23.744916553287982,
                "pitch": 62,
                "start": 23.408227210884355,
                "velocity": 0.38258597254753113
            },
            {
                "end": 23.408227210884355,
                "pitch": 62,
                "start": 23.24568752834467,
                "velocity": 0.42516249418258667
            },
            {
                "end": 22.955438095238097,
                "pitch": 69,
                "start": 22.76967845804989,
                "velocity": 0.38039612770080566
            },
            {
                "end": 22.607138775510204,
                "pitch": 65,
                "start": 22.432989115646258,
                "velocity": 0.40853822231292725
            },
            {
                "end": 22.224009523809524,
                "pitch": 65,
                "start": 21.956980045351475,
                "velocity": 0.4211803078651428
            },
            {
                "end": 22.758068480725626,
                "pitch": 53,
                "start": 21.956980045351475,
                "velocity": 0.521968424320221
            },
            {
                "end": 21.700276643990932,
                "pitch": 60,
                "start": 21.479687074829933,
                "velocity": 0.6200540661811829
            },
            {
                "end": 21.433247165532883,
                "pitch": 53,
                "start": 21.154607709750568,
                "velocity": 0.33602848649024963
            },
            {
                "end": 21.35197732426304,
                "pitch": 65,
                "start": 21.142997732426306,
                "velocity": 0.44139841198921204
            },
            {
                "end": 21.479687074829933,
                "pitch": 60,
                "start": 21.142997732426306,
                "velocity": 0.4980309009552002
            },
            {
                "end": 20.875968253968257,
                "pitch": 53,
                "start": 20.66698866213152,
                "velocity": 0.4225703179836273
            },
            {
                "end": 20.794698412698413,
                "pitch": 65,
                "start": 20.655378684807257,
                "velocity": 0.35721632838249207
            },
            {
                "end": 20.086489795918368,
                "pitch": 65,
                "start": 19.864616326530612,
                "velocity": 0.49248915910720825
            },
            {
                "end": 20.156149659863946,
                "pitch": 53,
                "start": 19.864616326530612,
                "velocity": 0.5682275295257568
            },
            {
                "end": 19.52792698412698,
                "pitch": 53,
                "start": 19.376997278911563,
                "velocity": 0.4580417275428772
            },
            {
                "end": 18.71522857142857,
                "pitch": 65,
                "start": 18.56429886621315,
                "velocity": 0.5601818561553955
            },
            {
                "end": 19.02869795918367,
                "pitch": 60,
                "start": 18.56429886621315,
                "velocity": 0.44560813903808594
            },
            {
                "end": 18.819718367346937,
                "pitch": 53,
                "start": 18.56429886621315,
                "velocity": 0.4589594900608063
            },
            {
                "end": 18.56429886621315,
                "pitch": 65,
                "start": 18.0766798185941,
                "velocity": 0.4786868393421173
            },
            {
                "end": 15.183227664399093,
                "pitch": 67,
                "start": 15.02068798185941,
                "velocity": 0.4472028315067291
            },
            {
                "end": 14.475019047619048,
                "pitch": 64,
                "start": 13.82357641723356,
                "velocity": 0.3461722433567047
            },
            {
                "end": 9.967780045351475,
                "pitch": 58,
                "start": 8.933208163265306,
                "velocity": 0.7000085711479187
            },
            {
                "end": 6.505439002267574,
                "pitch": 65,
                "start": 6.133919727891157,
                "velocity": 0.6590023636817932
            },
            {
                "end": 4.727828571428571,
                "pitch": 58,
                "start": 4.240209523809524,
                "velocity": 0.5908592343330383
            },
            {
                "end": 4.333089342403628,
                "pitch": 46,
                "start": 4.054449886621315,
                "velocity": 0.5877110362052917
            },
            {
                "end": 3.7977464852607707,
                "pitch": 62,
                "start": 3.56554693877551,
                "velocity": 0.5802241563796997
            },
            {
                "end": 3.56554693877551,
                "pitch": 62,
                "start": 3.4146172335600906,
                "velocity": 0.38634344935417175
            },
            {
                "end": 2.369719274376417,
                "pitch": 64,
                "start": 2.1607396825396825,
                "velocity": 0.6869333982467651
            },
            {
                "end": 1.7531065759637188,
                "pitch": 84,
                "start": 1.5325170068027212,
                "velocity": 0.3607652485370636
            },
            {
                "end": 1.7763265306122449,
                "pitch": 65,
                "start": 1.5325170068027212,
                "velocity": 0.5177769064903259
            },
            {
                "end": 1.5325170068027212,
                "pitch": 65,
                "start": 1.3467573696145125,
                "velocity": 0.5886285901069641
            },
            {
                "end": 19.481487074829932,
                "pitch": 65,
                "start": 19.307337414965986,
                "velocity": 0.6742149591445923
            },
            {
                "end": 32.38915918367347,
                "pitch": 65,
                "start": 32.238229478458045,
                "velocity": 0.6538711786270142
            },
            {
                "end": 53.056147845804986,
                "pitch": 29,
                "start": 52.10412970521542,
                "velocity": 0.649202823638916
            },
            {
                "end": 4.228599546485261,
                "pitch": 58,
                "start": 4.042839909297052,
                "velocity": 0.6429661512374878
            },
            {
                "end": 58.191609523809525,
                "pitch": 57,
                "start": 57.79687029478458,
                "velocity": 0.6832655072212219
            },
            {
                "end": 27.718096598639455,
                "pitch": 67,
                "start": 27.567166893424037,
                "velocity": 0.6194594502449036
            },
            {
                "end": 11.349367346938775,
                "pitch": 73,
                "start": 11.117167800453515,
                "velocity": 0.573146641254425
            },
            {
                "end": 2.1491297052154192,
                "pitch": 65,
                "start": 1.9504761904761905,
                "velocity": 0.5298629403114319
            },
            {
                "end": 36.89639818594104,
                "pitch": 60,
                "start": 36.62936870748299,
                "velocity": 0.5618509650230408
            },
            {
                "end": 12.337499319727891,
                "pitch": 61,
                "start": 12.058859863945578,
                "velocity": 0.5326756834983826
            },
            {
                "end": 15.844996371882086,
                "pitch": 48,
                "start": 14.25442947845805,
                "velocity": 0.5304883122444153
            },
            {
                "end": 8.143729705215419,
                "pitch": 53,
                "start": 6.807298412698413,
                "velocity": 0.42755821347236633
            },
            {
                "end": 45.91216009070295,
                "pitch": 70,
                "start": 45.53935691609978,
                "velocity": 0.5203902721405029
            },
            {
                "end": 6.1223097505668935,
                "pitch": 65,
                "start": 5.842386394557823,
                "velocity": 0.5248931646347046
            },
            {
                "end": 4.042839909297052,
                "pitch": 46,
                "start": 3.4262272108843534,
                "velocity": 0.5590375661849976
            },
            {
                "end": 18.48302902494331,
                "pitch": 53,
                "start": 17.576166893424034,
                "velocity": 0.41867518424987793
            },
            {
                "end": 8.515248979591837,
                "pitch": 60,
                "start": 8.050849886621315,
                "velocity": 0.5334742665290833
            },
            {
                "end": 6.609928798185941,
                "pitch": 53,
                "start": 6.191969614512471,
                "velocity": 0.4637722969055176
            },
            {
                "end": 25.94177006802721,
                "pitch": 55,
                "start": 25.81277641723356,
                "velocity": 0.5382916331291199
            },
            {
                "end": 34.480239002267574,
                "pitch": 58,
                "start": 34.189989569161,
                "velocity": 0.3906473219394684
            },
            {
                "end": 35.32776734693878,
                "pitch": 58,
                "start": 35.15361768707483,
                "velocity": 0.5501888394355774
            },
            {
                "end": 8.503639002267573,
                "pitch": 57,
                "start": 7.969580045351474,
                "velocity": 0.512055516242981
            },
            {
                "end": 58.26126938775511,
                "pitch": 65,
                "start": 58.01745986394558,
                "velocity": 0.5618760585784912
            },
            {
                "end": 11.117167800453515,
                "pitch": 57,
                "start": 10.501839002267575,
                "velocity": 0.5684931874275208
            },
            {
                "end": 51.48751700680272,
                "pitch": 53,
                "start": 51.20887755102041,
                "velocity": 0.5412891507148743
            },
            {
                "end": 1.9156462585034013,
                "pitch": 57,
                "start": 1.7647165532879818,
                "velocity": 0.5005608797073364
            },
            {
                "end": 35.45547709750567,
                "pitch": 62,
                "start": 35.316157369614515,
                "velocity": 0.5015490055084229
            },
            {
                "end": 58.47024897959184,
                "pitch": 60,
                "start": 57.866530158730164,
                "velocity": 0.4278853237628937
            },
            {
                "end": 39.13840770975057,
                "pitch": 41,
                "start": 38.406979138321994,
                "velocity": 0.4797358810901642
            },
            {
                "end": 2.671578684807256,
                "pitch": 72,
                "start": 2.4974290249433104,
                "velocity": 0.49909964203834534
            },
            {
                "end": 7.202037641723356,
                "pitch": 60,
                "start": 6.087479818594105,
                "velocity": 0.45414629578590393
            },
            {
                "end": 4.960028117913832,
                "pitch": 65,
                "start": 4.542068934240363,
                "velocity": 0.558737576007843
            },
            {
                "end": 45.01690793650794,
                "pitch": 67,
                "start": 44.7150485260771,
                "velocity": 0.41364362835884094
            },
            {
                "end": 14.045449886621315,
                "pitch": 48,
                "start": 13.765526530612245,
                "velocity": 0.5281643867492676
            },
            {
                "end": 32.958048072562356,
                "pitch": 53,
                "start": 32.80711836734694,
                "velocity": 0.4925483465194702
            },
            {
                "end": 23.08314784580499,
                "pitch": 62,
                "start": 22.827728344671204,
                "velocity": 0.495370477437973
            },
            {
                "end": 4.588508843537415,
                "pitch": 62,
                "start": 4.402749206349206,
                "velocity": 0.46728751063346863
            },
            {
                "end": 43.3437873015873,
                "pitch": 53,
                "start": 43.053537868480724,
                "velocity": 0.4976993501186371
            },
            {
                "end": 14.90458820861678,
                "pitch": 76,
                "start": 14.25442947845805,
                "velocity": 0.40139931440353394
            },
            {
                "end": 3.3101274376417233,
                "pitch": 69,
                "start": 2.7412385487528343,
                "velocity": 0.4227997958660126
            },
            {
                "end": 11.291317460317462,
                "pitch": 69,
                "start": 10.803698412698413,
                "velocity": 0.4495834708213806
            },
            {
                "end": 7.921856235827665,
                "pitch": 60,
                "start": 7.469067120181406,
                "velocity": 0.3899746835231781
            },
            {
                "end": 42.70523854875283,
                "pitch": 53,
                "start": 42.356939229024945,
                "velocity": 0.38537487387657166
            },
            {
                "end": 6.563488888888889,
                "pitch": 77,
                "start": 6.017819954648526,
                "velocity": 0.43348807096481323
            },
            {
                "end": 20.655378684807257,
                "pitch": 53,
                "start": 20.43478911564626,
                "velocity": 0.44532451033592224
            },
            {
                "end": 0.9868480725623583,
                "pitch": 83,
                "start": 0.8243083900226758,
                "velocity": 0.46100467443466187
            },
            {
                "end": 28.532078911564625,
                "pitch": 53,
                "start": 28.218609523809523,
                "velocity": 0.3771643042564392
            },
            {
                "end": 25.27871746031746,
                "pitch": 53,
                "start": 25.081347845804988,
                "velocity": 0.4890202283859253
            },
            {
                "end": 3.240467573696145,
                "pitch": 57,
                "start": 3.1011478458049884,
                "velocity": 0.46314737200737
            },
            {
                "end": 53.881740136054425,
                "pitch": 60,
                "start": 53.73081043083901,
                "velocity": 0.4639281630516052
            },
            {
                "end": 21.945370068027213,
                "pitch": 53,
                "start": 21.73510657596372,
                "velocity": 0.3911453187465668
            },
            {
                "end": 21.131387755102043,
                "pitch": 60,
                "start": 20.88757823129252,
                "velocity": 0.3661036193370819
            },
            {
                "end": 32.11051972789115,
                "pitch": 53,
                "start": 31.482297052154195,
                "velocity": 0.37424764037132263
            },
            {
                "end": 39.347387301587304,
                "pitch": 74,
                "start": 38.95264807256236,
                "velocity": 0.40515971183776855
            },
            {
                "end": 7.678046712018141,
                "pitch": 77,
                "start": 7.515507029478458,
                "velocity": 0.4348260462284088
            },
            {
                "end": 2.590308843537415,
                "pitch": 69,
                "start": 2.4277691609977325,
                "velocity": 0.46837666630744934
            },
            {
                "end": 5.528917006802721,
                "pitch": 60,
                "start": 5.366377324263039,
                "velocity": 0.4579121768474579
            },
            {
                "end": 36.87317823129251,
                "pitch": 67,
                "start": 36.71063854875283,
                "velocity": 0.4275785982608795
            },
            {
                "end": 37.372407256235824,
                "pitch": 55,
                "start": 37.17503764172336,
                "velocity": 0.4342021644115448
            },
            {
                "end": 37.756820408163264,
                "pitch": 60,
                "start": 37.60460680272109,
                "velocity": 0.45120126008987427
            },
            {
                "end": 44.656998639455786,
                "pitch": 55,
                "start": 44.47123900226757,
                "velocity": 0.4326135218143463
            },
            {
                "end": 18.18116961451247,
                "pitch": 60,
                "start": 17.948970068027208,
                "velocity": 0.365299254655838
            },
            {
                "end": 24.036449886621316,
                "pitch": 58,
                "start": 23.65203673469388,
                "velocity": 0.3774685263633728
            },
            {
                "end": 56.878398185941045,
                "pitch": 60,
                "start": 56.64619863945578,
                "velocity": 0.4219258427619934
            },
            {
                "end": 13.62620680272109,
                "pitch": 49,
                "start": 13.486887074829932,
                "velocity": 0.47415998578071594
            },
            {
                "end": 7.736096598639456,
                "pitch": 57,
                "start": 7.596776870748299,
                "velocity": 0.44074133038520813
            },
            {
                "end": 8.956428117913832,
                "pitch": 62,
                "start": 8.631348752834466,
                "velocity": 0.419588178396225
            },
            {
                "end": 9.490487074829932,
                "pitch": 46,
                "start": 9.211847619047619,
                "velocity": 0.4207260310649872
            },
            {
                "end": 57.424067120181405,
                "pitch": 36,
                "start": 56.611368707482995,
                "velocity": 0.32646411657333374
            },
            {
                "end": 1.0681179138321995,
                "pitch": 80,
                "start": 0.8591383219954648,
                "velocity": 0.4423603415489197
            },
            {
                "end": 42.69362857142857,
                "pitch": 65,
                "start": 42.42659909297052,
                "velocity": 0.3920322358608246
            },
            {
                "end": 36.3739492063492,
                "pitch": 60,
                "start": 36.188189569161,
                "velocity": 0.4507554769515991
            },
            {
                "end": 8.422369160997732,
                "pitch": 69,
                "start": 8.248219501133786,
                "velocity": 0.4380916357040405
            },
            {
                "end": 1.3699773242630386,
                "pitch": 53,
                "start": 1.1377777777777778,
                "velocity": 0.362219899892807
            },
            {
                "end": 6.749248526077098,
                "pitch": 64,
                "start": 6.505439002267574,
                "velocity": 0.3947570323944092
            },
            {
                "end": 11.977590022675738,
                "pitch": 49,
                "start": 11.802156462585035,
                "velocity": 0.4318493604660034
            },
            {
                "end": 42.020249886621315,
                "pitch": 41,
                "start": 41.84610022675737,
                "velocity": 0.41591721773147583
            },
            {
                "end": 14.33569931972789,
                "pitch": 72,
                "start": 13.9874,
                "velocity": 0.3568987548351288
            },
            {
                "end": 11.384197278911566,
                "pitch": 61,
                "start": 11.221657596371882,
                "velocity": 0.4246985912322998
            },
            {
                "end": 23.966790022675738,
                "pitch": 34,
                "start": 23.83779637188209,
                "velocity": 0.39810463786125183
            },
            {
                "end": 36.14174965986394,
                "pitch": 43,
                "start": 35.793450340136054,
                "velocity": 0.3953387141227722
            },
            {
                "end": 8.190169614512472,
                "pitch": 65,
                "start": 7.992799999999999,
                "velocity": 0.4109037518501282
            },
            {
                "end": 21.38680725623583,
                "pitch": 74,
                "start": 21.23587755102041,
                "velocity": 0.3911699950695038
            },
            {
                "end": 12.813508390022676,
                "pitch": 61,
                "start": 12.546478911564627,
                "velocity": 0.39500564336776733
            },
            {
                "end": 26.24362947845805,
                "pitch": 43,
                "start": 25.94177006802721,
                "velocity": 0.38277310132980347
            },
            {
                "end": 15.009078004535148,
                "pitch": 67,
                "start": 14.649168707482993,
                "velocity": 0.35580378770828247
            },
            {
                "end": 25.243887528344672,
                "pitch": 65,
                "start": 25.000078004535148,
                "velocity": 0.33596405386924744
            },
            {
                "end": 24.651778684807258,
                "pitch": 62,
                "start": 24.5124589569161,
                "velocity": 0.409315824508667
            },
            {
                "end": 8.87515827664399,
                "pitch": 46,
                "start": 8.72422857142857,
                "velocity": 0.3699043095111847
            },
            {
                "end": 37.919360090702945,
                "pitch": 55,
                "start": 37.639436734693874,
                "velocity": 0.3540475070476532
            },
            {
                "end": 35.61801678004535,
                "pitch": 70,
                "start": 35.467087074829934,
                "velocity": 0.38286542892456055
            },
            {
                "end": 33.46888707482993,
                "pitch": 58,
                "start": 33.27151746031746,
                "velocity": 0.3451811373233795
            },
            {
                "end": 2.067859863945578,
                "pitch": 69,
                "start": 1.811156462585034,
                "velocity": 0.30191779136657715
            },
            {
                "end": 33.02770793650794,
                "pitch": 41,
                "start": 32.88838820861678,
                "velocity": 0.36026012897491455
            },
            {
                "end": 51.91837006802721,
                "pitch": 29,
                "start": 51.61522675736961,
                "velocity": 0.32446879148483276
            },
            {
                "end": 7.573556916099774,
                "pitch": 65,
                "start": 6.900178231292517,
                "velocity": 0.2946472764015198
            },
            {
                "end": 34.89819818594104,
                "pitch": 65,
                "start": 34.7240485260771,
                "velocity": 0.35401955246925354
            },
            {
                "end": 34.097109750566894,
                "pitch": 53,
                "start": 33.79525034013606,
                "velocity": 0.316012442111969
            },
            {
                "end": 24.32669931972789,
                "pitch": 46,
                "start": 24.071279818594103,
                "velocity": 0.34138134121894836
            },
            {
                "end": 36.826738321995464,
                "pitch": 43,
                "start": 36.64097868480725,
                "velocity": 0.30499908328056335
            },
            {
                "end": 18.18116961451247,
                "pitch": 41,
                "start": 17.948970068027208,
                "velocity": 0.29624393582344055
            },
            {
                "end": 8.515248979591837,
                "pitch": 65,
                "start": 8.352709297052154,
                "velocity": 0.3201064169406891
            }
        ],
        "guitar": [
            {
                "end": 56.216629478458046,
                "pitch": 58,
                "start": 55.99603990929705,
                "velocity": 0.47689738869667053
            },
            {
                "end": 56.29789931972789,
                "pitch": 70,
                "start": 55.98442993197279,
                "velocity": 0.5877322554588318
            },
            {
                "end": 55.98442993197279,
                "pitch": 70,
                "start": 55.50713696145125,
                "velocity": 0.5734972357749939
            },
            {
                "end": 55.65935056689342,
                "pitch": 58,
                "start": 55.50713696145125,
                "velocity": 0.4029591679573059
            },
            {
                "end": 54.99629795918368,
                "pitch": 62,
                "start": 54.74087845804989,
                "velocity": 0.5048356652259827
            },
            {
                "end": 54.984687981859416,
                "pitch": 55,
                "start": 54.74087845804989,
                "velocity": 0.3840658962726593
            },
            {
                "end": 54.94985804988662,
                "pitch": 65,
                "start": 54.71765850340137,
                "velocity": 0.49298495054244995
            },
            {
                "end": 54.74087845804989,
                "pitch": 72,
                "start": 54.589948752834474,
                "velocity": 0.6282498240470886
            },
            {
                "end": 54.647998639455786,
                "pitch": 62,
                "start": 54.380969160997736,
                "velocity": 0.48425111174583435
            },
            {
                "end": 54.41579909297052,
                "pitch": 67,
                "start": 54.264869387755105,
                "velocity": 0.5024479627609253
            },
            {
                "end": 54.380969160997736,
                "pitch": 62,
                "start": 54.24164943310658,
                "velocity": 0.5112236738204956
            },
            {
                "end": 54.392579138322,
                "pitch": 55,
                "start": 54.24164943310658,
                "velocity": 0.3871254324913025
            },
            {
                "end": 54.24164943310658,
                "pitch": 65,
                "start": 54.05588979591837,
                "velocity": 0.6657328009605408
            },
            {
                "end": 53.89335011337869,
                "pitch": 82,
                "start": 53.74242040816327,
                "velocity": 0.4328686594963074
            },
            {
                "end": 53.68437052154195,
                "pitch": 65,
                "start": 53.41605714285714,
                "velocity": 0.5807567238807678
            },
            {
                "end": 53.69598049886621,
                "pitch": 53,
                "start": 53.40444716553288,
                "velocity": 0.5352538824081421
            },
            {
                "end": 53.09097777777778,
                "pitch": 69,
                "start": 52.940048072562355,
                "velocity": 0.5087510347366333
            },
            {
                "end": 53.07936780045352,
                "pitch": 53,
                "start": 52.940048072562355,
                "velocity": 0.49387022852897644
            },
            {
                "end": 53.114197732426305,
                "pitch": 65,
                "start": 52.92843809523809,
                "velocity": 0.5580428838729858
            },
            {
                "end": 52.30149931972789,
                "pitch": 57,
                "start": 52.127349659863945,
                "velocity": 0.37347933650016785
            },
            {
                "end": 52.37115918367347,
                "pitch": 65,
                "start": 52.11573968253968,
                "velocity": 0.6078164577484131
            },
            {
                "end": 52.13895963718821,
                "pitch": 72,
                "start": 51.99963990929705,
                "velocity": 0.6201196312904358
            },
            {
                "end": 51.80227029478458,
                "pitch": 69,
                "start": 51.6500566893424,
                "velocity": 0.43854355812072754
            },
            {
                "end": 51.81388027210885,
                "pitch": 65,
                "start": 51.63844671201814,
                "velocity": 0.5623228549957275
            },
            {
                "end": 51.359807256235825,
                "pitch": 77,
                "start": 51.18565759637188,
                "velocity": 0.48233503103256226
            },
            {
                "end": 51.39463718820861,
                "pitch": 96,
                "start": 51.17404761904761,
                "velocity": 0.3439790606498718
            },
            {
                "end": 51.26692743764172,
                "pitch": 65,
                "start": 51.03472789115646,
                "velocity": 0.43120431900024414
            },
            {
                "end": 51.03472789115646,
                "pitch": 65,
                "start": 50.82574829931973,
                "velocity": 0.6568472385406494
            },
            {
                "end": 51.20887755102041,
                "pitch": 53,
                "start": 50.82574829931973,
                "velocity": 0.5202550292015076
            },
            {
                "end": 50.477448979591834,
                "pitch": 65,
                "start": 50.33812925170068,
                "velocity": 0.5088128447532654
            },
            {
                "end": 50.535498866213146,
                "pitch": 53,
                "start": 50.33812925170068,
                "velocity": 0.4980849027633667
            },
            {
                "end": 49.722800453514736,
                "pitch": 65,
                "start": 49.5589768707483,
                "velocity": 0.5247195959091187
            },
            {
                "end": 49.75763038548752,
                "pitch": 57,
                "start": 49.5589768707483,
                "velocity": 0.5338459610939026
            },
            {
                "end": 49.68797052154195,
                "pitch": 53,
                "start": 49.5589768707483,
                "velocity": 0.4706672430038452
            },
            {
                "end": 49.291947392290254,
                "pitch": 65,
                "start": 49.05974784580499,
                "velocity": 0.6697390675544739
            },
            {
                "end": 48.804328344671205,
                "pitch": 65,
                "start": 48.60695873015873,
                "velocity": 0.5482735633850098
            },
            {
                "end": 48.75788843537415,
                "pitch": 96,
                "start": 48.59534875283447,
                "velocity": 0.4795685112476349
            },
            {
                "end": 48.78110839002267,
                "pitch": 77,
                "start": 48.59534875283447,
                "velocity": 0.5024427175521851
            },
            {
                "end": 47.87553015873016,
                "pitch": 72,
                "start": 47.49111700680272,
                "velocity": 0.61624675989151
            },
            {
                "end": 47.258917460317456,
                "pitch": 65,
                "start": 46.95705804988662,
                "velocity": 0.6391980648040771
            },
            {
                "end": 47.23569750566893,
                "pitch": 72,
                "start": 46.85256825396825,
                "velocity": 0.466799259185791
            },
            {
                "end": 46.64358866213152,
                "pitch": 65,
                "start": 46.48104897959183,
                "velocity": 0.5467683672904968
            },
            {
                "end": 46.52748888888889,
                "pitch": 72,
                "start": 46.3649492063492,
                "velocity": 0.6063790917396545
            },
            {
                "end": 46.23723945578231,
                "pitch": 65,
                "start": 46.0514798185941,
                "velocity": 0.4036635160446167
            },
            {
                "end": 45.842500226757366,
                "pitch": 62,
                "start": 45.66706666666667,
                "velocity": 0.4409973621368408
            },
            {
                "end": 44.970468027210885,
                "pitch": 72,
                "start": 44.78470839002268,
                "velocity": 0.33296018838882446
            },
            {
                "end": 44.57572879818594,
                "pitch": 67,
                "start": 44.38996916099774,
                "velocity": 0.698900580406189
            },
            {
                "end": 44.540898866213155,
                "pitch": 91,
                "start": 44.26225941043084,
                "velocity": 0.33818042278289795
            },
            {
                "end": 44.52928888888889,
                "pitch": 72,
                "start": 44.26225941043084,
                "velocity": 0.6059896349906921
            },
            {
                "end": 44.401579138322,
                "pitch": 69,
                "start": 44.21581950113379,
                "velocity": 0.6914685964584351
            },
            {
                "end": 44.041669841269844,
                "pitch": 69,
                "start": 43.890740136054426,
                "velocity": 0.6172354817390442
            },
            {
                "end": 43.995229931972794,
                "pitch": 91,
                "start": 43.774640362811795,
                "velocity": 0.285312294960022
            },
            {
                "end": 43.62242675736962,
                "pitch": 67,
                "start": 43.45988707482993,
                "velocity": 0.6280949711799622
            },
            {
                "end": 42.77489841269841,
                "pitch": 65,
                "start": 42.5891387755102,
                "velocity": 0.5716557502746582
            },
            {
                "end": 42.07829977324263,
                "pitch": 69,
                "start": 41.799660317460315,
                "velocity": 0.5660179257392883
            },
            {
                "end": 41.962199999999996,
                "pitch": 65,
                "start": 41.799660317460315,
                "velocity": 0.5801739692687988
            },
            {
                "end": 41.34558730158731,
                "pitch": 72,
                "start": 41.206267573696145,
                "velocity": 0.6104921102523804
            },
            {
                "end": 41.310757369614514,
                "pitch": 69,
                "start": 41.159827664399096,
                "velocity": 0.6317495107650757
            },
            {
                "end": 41.09016780045352,
                "pitch": 65,
                "start": 40.881188208616784,
                "velocity": 0.6477095484733582
            },
            {
                "end": 40.881188208616784,
                "pitch": 65,
                "start": 40.498058956916104,
                "velocity": 0.5571746826171875
            },
            {
                "end": 40.231029478458055,
                "pitch": 65,
                "start": 40.010439909297055,
                "velocity": 0.6858785152435303
            },
            {
                "end": 39.556366893424034,
                "pitch": 65,
                "start": 39.26611746031746,
                "velocity": 0.5616875290870667
            },
            {
                "end": 39.63763673469388,
                "pitch": 69,
                "start": 39.21967755102041,
                "velocity": 0.46503549814224243
            },
            {
                "end": 39.20806757369615,
                "pitch": 72,
                "start": 38.906208163265305,
                "velocity": 0.39116424322128296
            },
            {
                "end": 38.9410380952381,
                "pitch": 65,
                "start": 38.790108390022674,
                "velocity": 0.4428975284099579
            },
            {
                "end": 38.45341904761905,
                "pitch": 65,
                "start": 38.29087936507936,
                "velocity": 0.5456973314285278
            },
            {
                "end": 37.69748662131519,
                "pitch": 60,
                "start": 37.27952743764172,
                "velocity": 0.4103071987628937
            },
            {
                "end": 37.27952743764172,
                "pitch": 60,
                "start": 36.942838095238095,
                "velocity": 0.41544169187545776
            },
            {
                "end": 36.97766802721088,
                "pitch": 64,
                "start": 36.79190839002267,
                "velocity": 0.5549912452697754
            },
            {
                "end": 36.942838095238095,
                "pitch": 60,
                "start": 36.78029841269841,
                "velocity": 0.46789786219596863
            },
            {
                "end": 36.79190839002267,
                "pitch": 64,
                "start": 36.47843900226757,
                "velocity": 0.5922501683235168
            },
            {
                "end": 36.339119274376415,
                "pitch": 67,
                "start": 36.1533596371882,
                "velocity": 0.5747313499450684
            },
            {
                "end": 36.47843900226757,
                "pitch": 64,
                "start": 36.1533596371882,
                "velocity": 0.6365008354187012
            },
            {
                "end": 36.19979954648526,
                "pitch": 72,
                "start": 35.97920997732426,
                "velocity": 0.2866472601890564
            },
            {
                "end": 35.68767664399093,
                "pitch": 62,
                "start": 35.33937732426304,
                "velocity": 0.645183265209198
            },
            {
                "end": 35.33937732426304,
                "pitch": 62,
                "start": 35.18844761904762,
                "velocity": 0.6003080606460571
            },
            {
                "end": 35.39742721088435,
                "pitch": 65,
                "start": 34.863368253968254,
                "velocity": 0.37969323992729187
            },
            {
                "end": 35.18844761904762,
                "pitch": 62,
                "start": 34.863368253968254,
                "velocity": 0.6543330550193787
            },
            {
                "end": 35.66445668934241,
                "pitch": 46,
                "start": 34.29447936507937,
                "velocity": 0.5587026476860046
            },
            {
                "end": 34.863368253968254,
                "pitch": 65,
                "start": 34.166769614512475,
                "velocity": 0.4577474892139435
            },
            {
                "end": 34.36413922902494,
                "pitch": 62,
                "start": 34.050669841269844,
                "velocity": 0.4115835726261139
            },
            {
                "end": 33.992619954648525,
                "pitch": 53,
                "start": 33.724306575963716,
                "velocity": 0.2941748797893524
            },
            {
                "end": 34.166769614512475,
                "pitch": 65,
                "start": 33.5733768707483,
                "velocity": 0.4737572968006134
            },
            {
                "end": 33.59659682539682,
                "pitch": 67,
                "start": 33.30634739229025,
                "velocity": 0.6705944538116455
            },
            {
                "end": 33.283127437641724,
                "pitch": 65,
                "start": 33.09736780045351,
                "velocity": 0.6604907512664795
            },
            {
                "end": 33.09736780045351,
                "pitch": 65,
                "start": 32.77228843537415,
                "velocity": 0.7225096821784973
            },
            {
                "end": 33.20185759637188,
                "pitch": 53,
                "start": 32.76067845804989,
                "velocity": 0.49712854623794556
            },
            {
                "end": 32.77228843537415,
                "pitch": 64,
                "start": 32.44720907029478,
                "velocity": 0.7452298998832703
            },
            {
                "end": 32.70262857142857,
                "pitch": 60,
                "start": 32.40076916099773,
                "velocity": 0.5485296249389648
            },
            {
                "end": 32.412379138321995,
                "pitch": 62,
                "start": 32.191789569160996,
                "velocity": 0.7044677734375
            },
            {
                "end": 32.33110929705215,
                "pitch": 41,
                "start": 32.12212970521542,
                "velocity": 0.3826014995574951
            },
            {
                "end": 31.168827664399092,
                "pitch": 53,
                "start": 30.983068027210884,
                "velocity": 0.4304145574569702
            },
            {
                "end": 32.01763990929705,
                "pitch": 41,
                "start": 30.97145804988662,
                "velocity": 0.45037540793418884
            },
            {
                "end": 30.983068027210884,
                "pitch": 53,
                "start": 30.181979591836733,
                "velocity": 0.4434177279472351
            },
            {
                "end": 29.530536961451247,
                "pitch": 53,
                "start": 29.39121723356009,
                "velocity": 0.4429236948490143
            },
            {
                "end": 30.97145804988662,
                "pitch": 41,
                "start": 29.3563873015873,
                "velocity": 0.5764115452766418
            },
            {
                "end": 29.39121723356009,
                "pitch": 53,
                "start": 29.15901768707483,
                "velocity": 0.3755129873752594
            },
            {
                "end": 29.3563873015873,
                "pitch": 41,
                "start": 28.950038095238096,
                "velocity": 0.593280017375946
            },
            {
                "end": 28.950038095238096,
                "pitch": 41,
                "start": 28.67139863945578,
                "velocity": 0.32558897137641907
            },
            {
                "end": 28.77588843537415,
                "pitch": 53,
                "start": 28.415979138321994,
                "velocity": 0.3273591101169586
            },
            {
                "end": 27.300137414965988,
                "pitch": 55,
                "start": 27.12598775510204,
                "velocity": 0.4513561427593231
            },
            {
                "end": 24.883978231292517,
                "pitch": 62,
                "start": 24.535678911564627,
                "velocity": 0.6065078973770142
            },
            {
                "end": 23.477887074829933,
                "pitch": 62,
                "start": 23.257297505668934,
                "velocity": 0.7397481799125671
            },
            {
                "end": 22.142739682539684,
                "pitch": 65,
                "start": 21.956980045351475,
                "velocity": 0.5800341367721558
            },
            {
                "end": 22.235619501133787,
                "pitch": 60,
                "start": 21.956980045351475,
                "velocity": 0.5136311054229736
            },
            {
                "end": 22.107909750566893,
                "pitch": 77,
                "start": 21.945370068027213,
                "velocity": 0.46869418025016785
            },
            {
                "end": 21.956980045351475,
                "pitch": 60,
                "start": 21.804766439909297,
                "velocity": 0.723447322845459
            },
            {
                "end": 21.804766439909297,
                "pitch": 60,
                "start": 21.479687074829933,
                "velocity": 0.4831668436527252
            },
            {
                "end": 20.852748299319728,
                "pitch": 65,
                "start": 20.66698866213152,
                "velocity": 0.71988844871521
            },
            {
                "end": 20.81791836734694,
                "pitch": 53,
                "start": 20.66698866213152,
                "velocity": 0.45490700006484985
            },
            {
                "end": 20.875968253968257,
                "pitch": 60,
                "start": 20.655378684807257,
                "velocity": 0.5190030932426453
            },
            {
                "end": 20.35351927437642,
                "pitch": 72,
                "start": 20.179369614512474,
                "velocity": 0.4638937711715698
            },
            {
                "end": 20.423179138322,
                "pitch": 60,
                "start": 20.179369614512474,
                "velocity": 0.5385463237762451
            },
            {
                "end": 20.04004988662132,
                "pitch": 60,
                "start": 19.865900226757372,
                "velocity": 0.5666463375091553
            },
            {
                "end": 20.074879818594106,
                "pitch": 65,
                "start": 19.702076643990928,
                "velocity": 0.49468305706977844
            },
            {
                "end": 19.702076643990928,
                "pitch": 65,
                "start": 19.376997278911563,
                "velocity": 0.6546474695205688
            },
            {
                "end": 19.3653873015873,
                "pitch": 60,
                "start": 19.21445759637188,
                "velocity": 0.505265474319458
            },
            {
                "end": 18.76166848072562,
                "pitch": 60,
                "start": 18.575908843537412,
                "velocity": 0.5574528574943542
            },
            {
                "end": 18.703618594104306,
                "pitch": 65,
                "start": 18.56429886621315,
                "velocity": 0.47739532589912415
            },
            {
                "end": 18.56429886621315,
                "pitch": 65,
                "start": 18.40175918367347,
                "velocity": 0.5617932677268982
            },
            {
                "end": 18.40175918367347,
                "pitch": 65,
                "start": 18.088289795918367,
                "velocity": 0.5542886853218079
            },
            {
                "end": 18.007019954648523,
                "pitch": 60,
                "start": 17.599386848072562,
                "velocity": 0.4855135679244995
            },
            {
                "end": 18.01862993197279,
                "pitch": 72,
                "start": 17.5877768707483,
                "velocity": 0.5187314748764038
            },
            {
                "end": 15.55474693877551,
                "pitch": 48,
                "start": 14.765268480725624,
                "velocity": 0.6748706698417664
            },
            {
                "end": 12.302669387755103,
                "pitch": 77,
                "start": 12.082079818594105,
                "velocity": 0.35311827063560486
            },
            {
                "end": 12.105299773242631,
                "pitch": 84,
                "start": 11.82537641723356,
                "velocity": 0.4011983573436737
            },
            {
                "end": 11.686056689342404,
                "pitch": 68,
                "start": 11.47707709750567,
                "velocity": 0.33914807438850403
            },
            {
                "end": 11.686056689342404,
                "pitch": 82,
                "start": 11.44224716553288,
                "velocity": 0.32865816354751587
            },
            {
                "end": 11.674446712018142,
                "pitch": 70,
                "start": 11.44224716553288,
                "velocity": 0.3273153007030487
            },
            {
                "end": 11.44224716553288,
                "pitch": 82,
                "start": 11.163607709750568,
                "velocity": 0.48732051253318787
            },
            {
                "end": 11.604786848072564,
                "pitch": 65,
                "start": 11.151997732426304,
                "velocity": 0.35666513442993164
            },
            {
                "end": 11.256487528344673,
                "pitch": 73,
                "start": 11.117167800453515,
                "velocity": 0.4881664514541626
            },
            {
                "end": 9.687856689342404,
                "pitch": 96,
                "start": 9.548536961451246,
                "velocity": 0.39505937695503235
            },
            {
                "end": 9.513707029478457,
                "pitch": 84,
                "start": 9.17701768707483,
                "velocity": 0.41350987553596497
            },
            {
                "end": 9.17701768707483,
                "pitch": 84,
                "start": 8.898378231292517,
                "velocity": 0.5078206062316895
            },
            {
                "end": 8.747448526077097,
                "pitch": 62,
                "start": 8.584908843537415,
                "velocity": 0.3823840618133545
            },
            {
                "end": 7.5619469387755105,
                "pitch": 65,
                "start": 7.318137414965986,
                "velocity": 0.34668105840682983
            },
            {
                "end": 7.318137414965986,
                "pitch": 57,
                "start": 6.969838095238095,
                "velocity": 0.5350890755653381
            },
            {
                "end": 6.946618140589569,
                "pitch": 84,
                "start": 6.609928798185941,
                "velocity": 0.36924809217453003
            },
            {
                "end": 6.876958276643991,
                "pitch": 64,
                "start": 6.609928798185941,
                "velocity": 0.3057376742362976
            },
            {
                "end": 6.609928798185941,
                "pitch": 84,
                "start": 6.308069387755102,
                "velocity": 0.31728699803352356
            },
            {
                "end": 6.133919727891157,
                "pitch": 64,
                "start": 5.9946,
                "velocity": 0.3854621350765228
            },
            {
                "end": 4.6001188208616774,
                "pitch": 82,
                "start": 4.37952925170068,
                "velocity": 0.3532206416130066
            },
            {
                "end": 5.377987301587301,
                "pitch": 58,
                "start": 4.37952925170068,
                "velocity": 0.5936372876167297
            },
            {
                "end": 4.495629024943311,
                "pitch": 96,
                "start": 4.054449886621315,
                "velocity": 0.35967347025871277
            },
            {
                "end": 4.425969160997732,
                "pitch": 84,
                "start": 4.008009977324263,
                "velocity": 0.46647897362709045
            },
            {
                "end": 4.008009977324263,
                "pitch": 84,
                "start": 3.7513065759637185,
                "velocity": 0.43481549620628357
            },
            {
                "end": 2.1607396825396825,
                "pitch": 57,
                "start": 1.799546485260771,
                "velocity": 0.538969874382019
            },
            {
                "end": 1.7531065759637188,
                "pitch": 84,
                "start": 1.4396371882086167,
                "velocity": 0.41685542464256287
            },
            {
                "end": 1.3931972789115645,
                "pitch": 72,
                "start": 1.172607709750567,
                "velocity": 0.37020835280418396
            },
            {
                "end": 1.4396371882086167,
                "pitch": 84,
                "start": 1.1609977324263039,
                "velocity": 0.43256476521492004
            },
            {
                "end": 1.3003174603174603,
                "pitch": 77,
                "start": 1.1609977324263039,
                "velocity": 0.3761613070964813
            },
            {
                "end": 18.0766798185941,
                "pitch": 65,
                "start": 17.378797278911563,
                "velocity": 0.524004340171814
            },
            {
                "end": 39.173237641723354,
                "pitch": 67,
                "start": 39.0339179138322,
                "velocity": 0.5751484036445618
            },
            {
                "end": 41.753220408163266,
                "pitch": 67,
                "start": 41.62422675736962,
                "velocity": 0.5735967755317688
            },
            {
                "end": 38.83654829931973,
                "pitch": 67,
                "start": 38.697228571428575,
                "velocity": 0.578576385974884
            },
            {
                "end": 34.85175827664399,
                "pitch": 62,
                "start": 34.70082857142857,
                "velocity": 0.3976408839225769
            },
            {
                "end": 12.453599092970522,
                "pitch": 58,
                "start": 12.093689795918367,
                "velocity": 0.4928123354911804
            },
            {
                "end": 10.420569160997733,
                "pitch": 58,
                "start": 9.548536961451246,
                "velocity": 0.5384722948074341
            },
            {
                "end": 36.14174965986394,
                "pitch": 64,
                "start": 35.88633015873015,
                "velocity": 0.40410107374191284
            },
            {
                "end": 7.585166893424036,
                "pitch": 60,
                "start": 7.364577324263038,
                "velocity": 0.5242000818252563
            },
            {
                "end": 6.400949206349207,
                "pitch": 65,
                "start": 6.133919727891157,
                "velocity": 0.5263659358024597
            },
            {
                "end": 41.496517006802726,
                "pitch": 65,
                "start": 41.35719727891157,
                "velocity": 0.5082135200500488
            },
            {
                "end": 6.284849433106576,
                "pitch": 77,
                "start": 6.075869841269841,
                "velocity": 0.47906622290611267
            },
            {
                "end": 36.21140952380952,
                "pitch": 43,
                "start": 35.75862040816326,
                "velocity": 0.4352339804172516
            },
            {
                "end": 29.62341678004535,
                "pitch": 60,
                "start": 29.147407709750567,
                "velocity": 0.4448722302913666
            },
            {
                "end": 36.3739492063492,
                "pitch": 60,
                "start": 36.002429931972785,
                "velocity": 0.43841129541397095
            },
            {
                "end": 6.540268934240363,
                "pitch": 53,
                "start": 6.308069387755102,
                "velocity": 0.45961251854896545
            },
            {
                "end": 3.252077551020408,
                "pitch": 57,
                "start": 2.578698866213152,
                "velocity": 0.36061784625053406
            },
            {
                "end": 43.22768752834467,
                "pitch": 65,
                "start": 43.08836780045351,
                "velocity": 0.4512629508972168
            },
            {
                "end": 51.732610430839,
                "pitch": 60,
                "start": 51.54556689342403,
                "velocity": 0.40481454133987427
            },
            {
                "end": 6.900178231292517,
                "pitch": 60,
                "start": 6.633148752834467,
                "velocity": 0.39833056926727295
            },
            {
                "end": 29.833680272108843,
                "pitch": 69,
                "start": 29.286727437641723,
                "velocity": 0.3905755579471588
            },
            {
                "end": 7.759316553287982,
                "pitch": 57,
                "start": 7.608386848072563,
                "velocity": 0.4342506527900696
            },
            {
                "end": 7.5271170068027216,
                "pitch": 53,
                "start": 6.679588662131519,
                "velocity": 0.37159645557403564
            },
            {
                "end": 30.17036961451247,
                "pitch": 53,
                "start": 29.751126530612243,
                "velocity": 0.367576539516449
            },
            {
                "end": 33.712696598639454,
                "pitch": 46,
                "start": 33.14380770975057,
                "velocity": 0.3716513216495514
            },
            {
                "end": 61.1069977324263,
                "pitch": 29,
                "start": 60.863188208616776,
                "velocity": 0.3910752236843109
            },
            {
                "end": 12.581308843537416,
                "pitch": 84,
                "start": 12.430379138321996,
                "velocity": 0.4070541560649872
            },
            {
                "end": 35.67606666666667,
                "pitch": 58,
                "start": 35.50191700680272,
                "velocity": 0.40403077006340027
            },
            {
                "end": 31.78544036281179,
                "pitch": 60,
                "start": 31.62161678004535,
                "velocity": 0.3744144141674042
            },
            {
                "end": 6.91178820861678,
                "pitch": 96,
                "start": 6.772468480725624,
                "velocity": 0.38226333260536194
            },
            {
                "end": 7.701266666666667,
                "pitch": 84,
                "start": 7.109157823129252,
                "velocity": 0.3539579510688782
            },
            {
                "end": 10.234809523809524,
                "pitch": 65,
                "start": 9.850396371882086,
                "velocity": 0.3583340346813202
            },
            {
                "end": 29.147407709750567,
                "pitch": 53,
                "start": 28.926818140589567,
                "velocity": 0.34377235174179077
            },
            {
                "end": 10.14192970521542,
                "pitch": 82,
                "start": 9.513707029478457,
                "velocity": 0.3341574966907501
            },
            {
                "end": 5.250277551020408,
                "pitch": 84,
                "start": 4.809098412698413,
                "velocity": 0.37249594926834106
            },
            {
                "end": 2.7992884353741494,
                "pitch": 84,
                "start": 2.067859863945578,
                "velocity": 0.3157821297645569
            },
            {
                "end": 5.1690077097505664,
                "pitch": 65,
                "start": 4.994858049886621,
                "velocity": 0.3674643635749817
            },
            {
                "end": 4.402749206349206,
                "pitch": 91,
                "start": 4.216989569160997,
                "velocity": 0.3583662509918213
            },
            {
                "end": 12.534868934240363,
                "pitch": 65,
                "start": 12.244619501133787,
                "velocity": 0.35842517018318176
            },
            {
                "end": 9.536926984126984,
                "pitch": 96,
                "start": 9.29311746031746,
                "velocity": 0.33204787969589233
            },
            {
                "end": 34.29447936507937,
                "pitch": 60,
                "start": 34.097109750566894,
                "velocity": 0.3421998620033264
            },
            {
                "end": 7.225257596371883,
                "pitch": 60,
                "start": 7.074327891156463,
                "velocity": 0.3583160638809204
            },
            {
                "end": 31.924760090702947,
                "pitch": 53,
                "start": 31.70288662131519,
                "velocity": 0.3564869463443756
            },
            {
                "end": 11.32614739229025,
                "pitch": 58,
                "start": 11.186827664399093,
                "velocity": 0.3582998216152191
            },
            {
                "end": 34.491848979591836,
                "pitch": 70,
                "start": 34.35252925170068,
                "velocity": 0.3468097746372223
            },
            {
                "end": 5.656626757369614,
                "pitch": 84,
                "start": 5.412817233560091,
                "velocity": 0.30555570125579834
            },
            {
                "end": 9.432437188208617,
                "pitch": 91,
                "start": 9.281507482993197,
                "velocity": 0.34050461649894714
            },
            {
                "end": 37.38401723356009,
                "pitch": 64,
                "start": 37.18664761904762,
                "velocity": 0.32256072759628296
            },
            {
                "end": 34.259649433106574,
                "pitch": 79,
                "start": 34.097109750566894,
                "velocity": 0.3331024944782257
            },
            {
                "end": 5.145787755102041,
                "pitch": 60,
                "start": 4.994858049886621,
                "velocity": 0.28539803624153137
            }
        ],
        "other": [
            {
                "end": 61.11860770975056,
                "pitch": 67,
                "start": 60.93284807256236,
                "velocity": 0.511314868927002
            },
            {
                "end": 61.11860770975056,
                "pitch": 79,
                "start": 60.68903854875283,
                "velocity": 0.5066542029380798
            },
            {
                "end": 60.93284807256236,
                "pitch": 67,
                "start": 60.68903854875283,
                "velocity": 0.5230100750923157
            },
            {
                "end": 61.11860770975056,
                "pitch": 57,
                "start": 60.68903854875283,
                "velocity": 0.38681089878082275
            },
            {
                "end": 58.9230380952381,
                "pitch": 65,
                "start": 58.72566848072562,
                "velocity": 0.5698708295822144
            },
            {
                "end": 58.93464807256236,
                "pitch": 60,
                "start": 58.72566848072562,
                "velocity": 0.48130422830581665
            },
            {
                "end": 58.93464807256236,
                "pitch": 69,
                "start": 58.56312879818594,
                "velocity": 0.5032308101654053
            },
            {
                "end": 58.72566848072562,
                "pitch": 65,
                "start": 58.56312879818594,
                "velocity": 0.629079282283783
            },
            {
                "end": 58.22643945578231,
                "pitch": 69,
                "start": 58.08711972789116,
                "velocity": 0.4570888578891754
            },
            {
                "end": 58.72566848072562,
                "pitch": 60,
                "start": 57.854920181405895,
                "velocity": 0.49343958497047424
            },
            {
                "end": 57.56338684807256,
                "pitch": 60,
                "start": 57.307967346938774,
                "velocity": 0.34568852186203003
            },
            {
                "end": 56.50687891156463,
                "pitch": 79,
                "start": 56.321119274376414,
                "velocity": 0.4920308589935303
            },
            {
                "end": 56.657808616780045,
                "pitch": 48,
                "start": 56.321119274376414,
                "velocity": 0.350887268781662
            },
            {
                "end": 56.53009886621315,
                "pitch": 62,
                "start": 56.30950929705215,
                "velocity": 0.4410177171230316
            },
            {
                "end": 57.59821678004535,
                "pitch": 36,
                "start": 56.274679365079365,
                "velocity": 0.6228061318397522
            },
            {
                "end": 56.23984943310658,
                "pitch": 58,
                "start": 56.06569977324263,
                "velocity": 0.503242552280426
            },
            {
                "end": 56.06569977324263,
                "pitch": 58,
                "start": 55.90316009070295,
                "velocity": 0.38961508870124817
            },
            {
                "end": 56.37916916099773,
                "pitch": 55,
                "start": 55.65935056689342,
                "velocity": 0.45665431022644043
            },
            {
                "end": 55.65935056689342,
                "pitch": 58,
                "start": 55.50713696145125,
                "velocity": 0.44416841864585876
            },
            {
                "end": 55.65935056689342,
                "pitch": 55,
                "start": 55.50713696145125,
                "velocity": 0.39416196942329407
            },
            {
                "end": 55.50713696145125,
                "pitch": 58,
                "start": 55.344597278911564,
                "velocity": 0.499053418636322
            },
            {
                "end": 55.50713696145125,
                "pitch": 55,
                "start": 55.00790793650794,
                "velocity": 0.4710964262485504
            },
            {
                "end": 55.00790793650794,
                "pitch": 55,
                "start": 54.76409841269842,
                "velocity": 0.5040904879570007
            },
            {
                "end": 55.077567800453515,
                "pitch": 62,
                "start": 54.7060485260771,
                "velocity": 0.46753057837486267
            },
            {
                "end": 54.7060485260771,
                "pitch": 62,
                "start": 54.380969160997736,
                "velocity": 0.4452531635761261
            },
            {
                "end": 54.76409841269842,
                "pitch": 55,
                "start": 54.369359183673474,
                "velocity": 0.3062712848186493
            },
            {
                "end": 54.380969160997736,
                "pitch": 62,
                "start": 54.218429478458056,
                "velocity": 0.44426074624061584
            },
            {
                "end": 54.369359183673474,
                "pitch": 55,
                "start": 54.218429478458056,
                "velocity": 0.4155583381652832
            },
            {
                "end": 54.218429478458056,
                "pitch": 62,
                "start": 53.986229931972794,
                "velocity": 0.5286902785301208
            },
            {
                "end": 54.218429478458056,
                "pitch": 55,
                "start": 53.77725034013606,
                "velocity": 0.3793478310108185
            },
            {
                "end": 54.264869387755105,
                "pitch": 50,
                "start": 53.73081043083901,
                "velocity": 0.50569087266922
            },
            {
                "end": 56.13535963718821,
                "pitch": 38,
                "start": 53.719200453514745,
                "velocity": 0.46973100304603577
            },
            {
                "end": 53.62503673469388,
                "pitch": 60,
                "start": 53.39283718820862,
                "velocity": 0.3526877164840698
            },
            {
                "end": 52.59174875283447,
                "pitch": 67,
                "start": 52.440819047619044,
                "velocity": 0.4843043088912964
            },
            {
                "end": 52.59174875283447,
                "pitch": 77,
                "start": 52.42920907029478,
                "velocity": 0.40529006719589233
            },
            {
                "end": 52.47564897959184,
                "pitch": 69,
                "start": 52.278279365079364,
                "velocity": 0.6370097994804382
            },
            {
                "end": 52.38276916099773,
                "pitch": 53,
                "start": 52.19700952380953,
                "velocity": 0.34177613258361816
            },
            {
                "end": 51.77905034013605,
                "pitch": 57,
                "start": 51.6500566893424,
                "velocity": 0.37025925517082214
            },
            {
                "end": 51.790660317460315,
                "pitch": 69,
                "start": 51.63844671201814,
                "velocity": 0.480968177318573
            },
            {
                "end": 51.83710022675737,
                "pitch": 65,
                "start": 51.63844671201814,
                "velocity": 0.4607406258583069
            },
            {
                "end": 51.61522675736961,
                "pitch": 67,
                "start": 51.475907029478456,
                "velocity": 0.4963546693325043
            },
            {
                "end": 51.626836734693875,
                "pitch": 89,
                "start": 51.32497732426304,
                "velocity": 0.3467032313346863
            },
            {
                "end": 52.74267845804989,
                "pitch": 29,
                "start": 51.243707482993194,
                "velocity": 0.635431170463562
            },
            {
                "end": 51.32497732426304,
                "pitch": 89,
                "start": 51.15082766439909,
                "velocity": 0.4515286087989807
            },
            {
                "end": 51.18565759637188,
                "pitch": 69,
                "start": 50.99989795918367,
                "velocity": 0.5108501315116882
            },
            {
                "end": 49.92017006802721,
                "pitch": 69,
                "start": 49.69958049886621,
                "velocity": 0.6109017729759216
            },
            {
                "end": 50.50066893424036,
                "pitch": 57,
                "start": 49.69958049886621,
                "velocity": 0.4488086998462677
            },
            {
                "end": 49.89695011337868,
                "pitch": 41,
                "start": 49.664750566893424,
                "velocity": 0.4889622628688812
            },
            {
                "end": 49.69958049886621,
                "pitch": 53,
                "start": 49.54736689342404,
                "velocity": 0.4030742347240448
            },
            {
                "end": 49.827290249433105,
                "pitch": 29,
                "start": 49.54736689342404,
                "velocity": 0.4835130274295807
            },
            {
                "end": 49.233897505668935,
                "pitch": 81,
                "start": 49.071357823129254,
                "velocity": 0.44396457076072693
            },
            {
                "end": 49.233897505668935,
                "pitch": 69,
                "start": 49.071357823129254,
                "velocity": 0.5593265891075134
            },
            {
                "end": 49.280337414965985,
                "pitch": 60,
                "start": 49.071357823129254,
                "velocity": 0.45249632000923157
            },
            {
                "end": 49.36160725623583,
                "pitch": 65,
                "start": 49.05974784580499,
                "velocity": 0.5257880091667175
            },
            {
                "end": 49.21067755102041,
                "pitch": 53,
                "start": 49.05974784580499,
                "velocity": 0.3888091444969177
            },
            {
                "end": 49.05974784580499,
                "pitch": 67,
                "start": 48.897208163265304,
                "velocity": 0.6348530054092407
            },
            {
                "end": 48.40958911564626,
                "pitch": 65,
                "start": 48.22382947845805,
                "velocity": 0.5289590358734131
            },
            {
                "end": 47.701380498866214,
                "pitch": 69,
                "start": 47.44467709750567,
                "velocity": 0.42774224281311035
            },
            {
                "end": 47.747820408163264,
                "pitch": 65,
                "start": 47.27052743764172,
                "velocity": 0.411810964345932
            },
            {
                "end": 47.29374739229025,
                "pitch": 69,
                "start": 46.96866802721088,
                "velocity": 0.40324416756629944
            },
            {
                "end": 47.27052743764172,
                "pitch": 65,
                "start": 46.95705804988662,
                "velocity": 0.5850117206573486
            },
            {
                "end": 46.96866802721088,
                "pitch": 69,
                "start": 46.8061283446712,
                "velocity": 0.3472096621990204
            },
            {
                "end": 46.666808616780045,
                "pitch": 65,
                "start": 46.48104897959183,
                "velocity": 0.6374173164367676
            },
            {
                "end": 46.48104897959183,
                "pitch": 65,
                "start": 45.98181995464852,
                "velocity": 0.5077883005142212
            },
            {
                "end": 45.97020997732426,
                "pitch": 62,
                "start": 45.80767029478458,
                "velocity": 0.5276495814323425
            },
            {
                "end": 45.91216009070295,
                "pitch": 70,
                "start": 45.65545668934241,
                "velocity": 0.4541158974170685
            },
            {
                "end": 45.3419873015873,
                "pitch": 62,
                "start": 45.17944761904762,
                "velocity": 0.3768599331378937
            },
            {
                "end": 45.16783764172336,
                "pitch": 67,
                "start": 44.99368798185941,
                "velocity": 0.5457192659378052
            },
            {
                "end": 44.73826848072562,
                "pitch": 46,
                "start": 44.38996916099774,
                "velocity": 0.36072391271591187
            },
            {
                "end": 44.56411882086168,
                "pitch": 70,
                "start": 44.378359183673474,
                "velocity": 0.6121625900268555
            },
            {
                "end": 44.73826848072562,
                "pitch": 62,
                "start": 44.378359183673474,
                "velocity": 0.36086124181747437
            },
            {
                "end": 44.7150485260771,
                "pitch": 58,
                "start": 44.378359183673474,
                "velocity": 0.4982892870903015
            },
            {
                "end": 43.890740136054426,
                "pitch": 70,
                "start": 43.72820045351474,
                "velocity": 0.7049134373664856
            },
            {
                "end": 44.378359183673474,
                "pitch": 58,
                "start": 43.72820045351474,
                "velocity": 0.4266505837440491
            },
            {
                "end": 43.63403673469388,
                "pitch": 67,
                "start": 43.41344716553288,
                "velocity": 0.3045489192008972
            },
            {
                "end": 43.35539727891156,
                "pitch": 69,
                "start": 43.15802766439909,
                "velocity": 0.41208335757255554
            },
            {
                "end": 43.37861723356009,
                "pitch": 65,
                "start": 43.07675782312925,
                "velocity": 0.5997739434242249
            },
            {
                "end": 43.390227210884355,
                "pitch": 53,
                "start": 43.07675782312925,
                "velocity": 0.47859957814216614
            },
            {
                "end": 42.97226802721088,
                "pitch": 53,
                "start": 42.70523854875283,
                "velocity": 0.3491353988647461
            },
            {
                "end": 42.786508390022675,
                "pitch": 65,
                "start": 42.5891387755102,
                "velocity": 0.5187680721282959
            },
            {
                "end": 42.72845850340136,
                "pitch": 69,
                "start": 42.42659909297052,
                "velocity": 0.4210548400878906
            },
            {
                "end": 42.5891387755102,
                "pitch": 65,
                "start": 42.42659909297052,
                "velocity": 0.36707451939582825
            },
            {
                "end": 42.42659909297052,
                "pitch": 69,
                "start": 42.26405941043084,
                "velocity": 0.3178725838661194
            },
            {
                "end": 42.00863990929705,
                "pitch": 69,
                "start": 41.799660317460315,
                "velocity": 0.3979417085647583
            },
            {
                "end": 41.93898004535147,
                "pitch": 65,
                "start": 41.78805034013605,
                "velocity": 0.6334402561187744
            },
            {
                "end": 41.484907029478464,
                "pitch": 67,
                "start": 41.322367346938776,
                "velocity": 0.6252991557121277
            },
            {
                "end": 41.33397732426304,
                "pitch": 69,
                "start": 41.14821768707483,
                "velocity": 0.6471350193023682
            },
            {
                "end": 41.043727891156465,
                "pitch": 65,
                "start": 40.823138321995465,
                "velocity": 0.5006198287010193
            },
            {
                "end": 40.776698412698416,
                "pitch": 69,
                "start": 40.57932879818595,
                "velocity": 0.4729163646697998
            },
            {
                "end": 39.022307936507936,
                "pitch": 79,
                "start": 38.77849841269841,
                "velocity": 0.2895878851413727
            },
            {
                "end": 38.801718367346936,
                "pitch": 69,
                "start": 38.56951882086168,
                "velocity": 0.5846890211105347
            },
            {
                "end": 38.360539229024944,
                "pitch": 77,
                "start": 38.209609523809526,
                "velocity": 0.3243483901023865
            },
            {
                "end": 38.256049433106575,
                "pitch": 82,
                "start": 37.534946938775505,
                "velocity": 0.6251019239425659
            },
            {
                "end": 37.45367709750567,
                "pitch": 70,
                "start": 36.95444807256236,
                "velocity": 0.5060579776763916
            },
            {
                "end": 36.9080081632653,
                "pitch": 43,
                "start": 36.68741859410431,
                "velocity": 0.4495201110839844
            },
            {
                "end": 37.534946938775505,
                "pitch": 82,
                "start": 36.62936870748299,
                "velocity": 0.6090037226676941
            },
            {
                "end": 37.01249795918367,
                "pitch": 60,
                "start": 36.62936870748299,
                "velocity": 0.5106630325317383
            },
            {
                "end": 36.95444807256236,
                "pitch": 55,
                "start": 36.62936870748299,
                "velocity": 0.49205905199050903
            },
            {
                "end": 36.62936870748299,
                "pitch": 82,
                "start": 36.31589931972789,
                "velocity": 0.5495535135269165
            },
            {
                "end": 36.95444807256236,
                "pitch": 70,
                "start": 36.31589931972789,
                "velocity": 0.3814104199409485
            },
            {
                "end": 36.31589931972789,
                "pitch": 82,
                "start": 36.1533596371882,
                "velocity": 0.4997372329235077
            },
            {
                "end": 36.32750929705215,
                "pitch": 67,
                "start": 36.1533596371882,
                "velocity": 0.4930565059185028
            },
            {
                "end": 36.32750929705215,
                "pitch": 60,
                "start": 36.1533596371882,
                "velocity": 0.42525309324264526
            },
            {
                "end": 36.31589931972789,
                "pitch": 55,
                "start": 36.1533596371882,
                "velocity": 0.48961693048477173
            },
            {
                "end": 35.86311020408163,
                "pitch": 58,
                "start": 35.66445668934241,
                "velocity": 0.4632270634174347
            },
            {
                "end": 35.65284671201814,
                "pitch": 46,
                "start": 35.40903718820862,
                "velocity": 0.5096022486686707
            },
            {
                "end": 35.66445668934241,
                "pitch": 58,
                "start": 35.39742721088435,
                "velocity": 0.5687244534492493
            },
            {
                "end": 36.1533596371882,
                "pitch": 82,
                "start": 35.33937732426304,
                "velocity": 0.6254251599311829
            },
            {
                "end": 35.478697052154196,
                "pitch": 62,
                "start": 35.33937732426304,
                "velocity": 0.3029341697692871
            },
            {
                "end": 36.31589931972789,
                "pitch": 70,
                "start": 35.1652276643991,
                "velocity": 0.48735153675079346
            },
            {
                "end": 34.42218911564626,
                "pitch": 62,
                "start": 34.22481950113379,
                "velocity": 0.628832221031189
            },
            {
                "end": 34.22481950113379,
                "pitch": 62,
                "start": 34.03905986394558,
                "velocity": 0.5629792809486389
            },
            {
                "end": 34.03905986394558,
                "pitch": 62,
                "start": 33.88813015873016,
                "velocity": 0.5003827214241028
            },
            {
                "end": 34.166769614512475,
                "pitch": 65,
                "start": 33.73591655328798,
                "velocity": 0.4188578426837921
            },
            {
                "end": 33.88813015873016,
                "pitch": 62,
                "start": 33.73591655328798,
                "velocity": 0.530516505241394
            },
            {
                "end": 33.73591655328798,
                "pitch": 62,
                "start": 33.5733768707483,
                "velocity": 0.7704328894615173
            },
            {
                "end": 32.43559909297052,
                "pitch": 65,
                "start": 32.27305941043084,
                "velocity": 0.4863290786743164
            },
            {
                "end": 31.784156462585035,
                "pitch": 69,
                "start": 31.633226757369613,
                "velocity": 0.46071645617485046
            },
            {
                "end": 32.09890975056689,
                "pitch": 60,
                "start": 31.482297052154195,
                "velocity": 0.3703881800174713
            },
            {
                "end": 31.73771655328798,
                "pitch": 65,
                "start": 31.470687074829932,
                "velocity": 0.4431779682636261
            },
            {
                "end": 32.16856961451247,
                "pitch": 53,
                "start": 31.470687074829932,
                "velocity": 0.41272565722465515
            },
            {
                "end": 31.470687074829932,
                "pitch": 65,
                "start": 31.30814739229025,
                "velocity": 0.27509066462516785
            },
            {
                "end": 31.145607709750564,
                "pitch": 65,
                "start": 30.983068027210884,
                "velocity": 0.6361727714538574
            },
            {
                "end": 31.470687074829932,
                "pitch": 53,
                "start": 30.983068027210884,
                "velocity": 0.41865238547325134
            },
            {
                "end": 31.15721768707483,
                "pitch": 60,
                "start": 30.97145804988662,
                "velocity": 0.4466756582260132
            },
            {
                "end": 30.55349886621315,
                "pitch": 69,
                "start": 30.17036961451247,
                "velocity": 0.492133229970932
            },
            {
                "end": 30.43739909297052,
                "pitch": 65,
                "start": 30.17036961451247,
                "velocity": 0.44393569231033325
            },
            {
                "end": 30.983068027210884,
                "pitch": 53,
                "start": 30.17036961451247,
                "velocity": 0.4884032607078552
            },
            {
                "end": 30.47222902494331,
                "pitch": 41,
                "start": 30.158759637188208,
                "velocity": 0.5172926783561707
            },
            {
                "end": 30.17036961451247,
                "pitch": 65,
                "start": 30.00782993197279,
                "velocity": 0.31803494691848755
            },
            {
                "end": 29.880120181405896,
                "pitch": 65,
                "start": 29.704686621315194,
                "velocity": 0.6240190267562866
            },
            {
                "end": 29.798850340136052,
                "pitch": 60,
                "start": 29.54214693877551,
                "velocity": 0.39375391602516174
            },
            {
                "end": 29.914950113378683,
                "pitch": 69,
                "start": 29.205457596371883,
                "velocity": 0.3917129635810852
            },
            {
                "end": 29.54214693877551,
                "pitch": 60,
                "start": 29.205457596371883,
                "velocity": 0.4843788146972656
            },
            {
                "end": 30.158759637188208,
                "pitch": 41,
                "start": 29.205457596371883,
                "velocity": 0.490896075963974
            },
            {
                "end": 29.205457596371883,
                "pitch": 69,
                "start": 28.89198820861678,
                "velocity": 0.45152547955513
            },
            {
                "end": 29.205457596371883,
                "pitch": 60,
                "start": 28.89198820861678,
                "velocity": 0.3996627926826477
            },
            {
                "end": 29.298337414965985,
                "pitch": 53,
                "start": 28.89198820861678,
                "velocity": 0.4727616310119629
            },
            {
                "end": 29.019697959183674,
                "pitch": 65,
                "start": 28.85715827664399,
                "velocity": 0.4418255388736725
            },
            {
                "end": 29.205457596371883,
                "pitch": 41,
                "start": 28.85715827664399,
                "velocity": 0.5574532151222229
            },
            {
                "end": 28.85715827664399,
                "pitch": 65,
                "start": 28.717838548752834,
                "velocity": 0.3284987807273865
            },
            {
                "end": 28.85715827664399,
                "pitch": 41,
                "start": 28.55529886621315,
                "velocity": 0.506359338760376
            },
            {
                "end": 28.578518820861678,
                "pitch": 65,
                "start": 28.40436916099773,
                "velocity": 0.541314423084259
            },
            {
                "end": 28.67139863945578,
                "pitch": 53,
                "start": 28.40436916099773,
                "velocity": 0.48017045855522156
            },
            {
                "end": 28.40436916099773,
                "pitch": 53,
                "start": 28.253439455782313,
                "velocity": 0.44956499338150024
            },
            {
                "end": 28.17216961451247,
                "pitch": 60,
                "start": 27.92836009070295,
                "velocity": 0.44605663418769836
            },
            {
                "end": 28.253439455782313,
                "pitch": 53,
                "start": 27.92836009070295,
                "velocity": 0.4358154237270355
            },
            {
                "end": 27.812260317460318,
                "pitch": 67,
                "start": 27.601996825396824,
                "velocity": 0.5907344818115234
            },
            {
                "end": 27.893530158730158,
                "pitch": 55,
                "start": 27.590386848072562,
                "velocity": 0.5053034424781799
            },
            {
                "end": 27.567166893424037,
                "pitch": 64,
                "start": 27.42784716553288,
                "velocity": 0.42335066199302673
            },
            {
                "end": 27.590386848072562,
                "pitch": 55,
                "start": 27.27691746031746,
                "velocity": 0.4161340594291687
            },
            {
                "end": 27.300137414965988,
                "pitch": 64,
                "start": 27.12598775510204,
                "velocity": 0.4662955701351166
            },
            {
                "end": 27.3581873015873,
                "pitch": 67,
                "start": 27.11437777777778,
                "velocity": 0.5069143176078796
            },
            {
                "end": 27.27691746031746,
                "pitch": 55,
                "start": 27.11437777777778,
                "velocity": 0.43130558729171753
            },
            {
                "end": 27.11437777777778,
                "pitch": 67,
                "start": 26.951838095238095,
                "velocity": 0.37327125668525696
            },
            {
                "end": 27.218867573696144,
                "pitch": 60,
                "start": 26.951838095238095,
                "velocity": 0.48548197746276855
            },
            {
                "end": 26.951838095238095,
                "pitch": 60,
                "start": 26.62675873015873,
                "velocity": 0.5331658124923706
            },
            {
                "end": 26.603538775510206,
                "pitch": 67,
                "start": 26.31328934240363,
                "velocity": 0.3783143162727356
            },
            {
                "end": 26.62675873015873,
                "pitch": 60,
                "start": 26.31328934240363,
                "velocity": 0.4116341769695282
            },
            {
                "end": 26.499048979591837,
                "pitch": 55,
                "start": 26.301679365079366,
                "velocity": 0.500337541103363
            },
            {
                "end": 25.988209977324264,
                "pitch": 64,
                "start": 25.82567029478458,
                "velocity": 0.4101179540157318
            },
            {
                "end": 25.964990022675735,
                "pitch": 67,
                "start": 25.824386394557823,
                "velocity": 0.4596002995967865
            },
            {
                "end": 25.953380045351473,
                "pitch": 60,
                "start": 25.824386394557823,
                "velocity": 0.35711827874183655
            },
            {
                "end": 25.9766,
                "pitch": 55,
                "start": 25.824386394557823,
                "velocity": 0.44220641255378723
            },
            {
                "end": 26.533878911564624,
                "pitch": 43,
                "start": 25.81277641723356,
                "velocity": 0.38399553298950195
            },
            {
                "end": 25.824386394557823,
                "pitch": 55,
                "start": 25.49930702947846,
                "velocity": 0.2909950315952301
            },
            {
                "end": 25.77794648526077,
                "pitch": 60,
                "start": 25.336767346938775,
                "velocity": 0.4307568669319153
            },
            {
                "end": 27.334967346938775,
                "pitch": 82,
                "start": 25.023297959183672,
                "velocity": 0.5078109502792358
            },
            {
                "end": 25.336767346938775,
                "pitch": 62,
                "start": 25.023297959183672,
                "velocity": 0.5345288515090942
            },
            {
                "end": 25.023297959183672,
                "pitch": 62,
                "start": 24.860758276643992,
                "velocity": 0.4063190817832947
            },
            {
                "end": 25.27871746031746,
                "pitch": 46,
                "start": 24.535678911564627,
                "velocity": 0.4026479721069336
            },
            {
                "end": 24.674998639455783,
                "pitch": 62,
                "start": 24.524068934240365,
                "velocity": 0.47826385498046875
            },
            {
                "end": 25.023297959183672,
                "pitch": 82,
                "start": 24.04805986394558,
                "velocity": 0.5945500135421753
            },
            {
                "end": 24.222209523809525,
                "pitch": 58,
                "start": 24.04805986394558,
                "velocity": 0.449406236410141
            },
            {
                "end": 24.535678911564627,
                "pitch": 46,
                "start": 24.04805986394558,
                "velocity": 0.38274437189102173
            },
            {
                "end": 23.955180045351476,
                "pitch": 65,
                "start": 23.73330657596372,
                "velocity": 0.3368874192237854
            },
            {
                "end": 24.04805986394558,
                "pitch": 62,
                "start": 23.73330657596372,
                "velocity": 0.37375450134277344
            },
            {
                "end": 23.9784,
                "pitch": 60,
                "start": 23.73330657596372,
                "velocity": 0.3516652584075928
            },
            {
                "end": 23.885520181405898,
                "pitch": 53,
                "start": 23.73330657596372,
                "velocity": 0.2883576452732086
            },
            {
                "end": 24.04805986394558,
                "pitch": 46,
                "start": 23.73330657596372,
                "velocity": 0.35991159081459045
            },
            {
                "end": 23.675256689342405,
                "pitch": 46,
                "start": 23.2689074829932,
                "velocity": 0.39620110392570496
            },
            {
                "end": 23.501107029478458,
                "pitch": 62,
                "start": 23.24568752834467,
                "velocity": 0.43586111068725586
            },
            {
                "end": 23.2689074829932,
                "pitch": 46,
                "start": 22.76967845804989,
                "velocity": 0.37695765495300293
            },
            {
                "end": 22.66518866213152,
                "pitch": 65,
                "start": 22.432989115646258,
                "velocity": 0.5370109677314758
            },
            {
                "end": 22.76967845804989,
                "pitch": 53,
                "start": 22.432989115646258,
                "velocity": 0.5190504193305969
            },
            {
                "end": 22.432989115646258,
                "pitch": 65,
                "start": 22.270449433106577,
                "velocity": 0.3183234632015228
            },
            {
                "end": 21.444857142857146,
                "pitch": 69,
                "start": 21.30553741496599,
                "velocity": 0.38674721121788025
            },
            {
                "end": 21.456467120181408,
                "pitch": 65,
                "start": 21.142997732426306,
                "velocity": 0.5304430723190308
            },
            {
                "end": 21.910540136054422,
                "pitch": 60,
                "start": 21.142997732426306,
                "velocity": 0.4332011640071869
            },
            {
                "end": 21.398417233560092,
                "pitch": 53,
                "start": 21.142997732426306,
                "velocity": 0.4487541913986206
            },
            {
                "end": 22.711628571428573,
                "pitch": 41,
                "start": 21.11977777777778,
                "velocity": 0.46736809611320496
            },
            {
                "end": 21.142997732426306,
                "pitch": 53,
                "start": 20.794698412698413,
                "velocity": 0.4184626638889313
            },
            {
                "end": 20.794698412698413,
                "pitch": 53,
                "start": 20.5160589569161,
                "velocity": 0.5826388001441956
            },
            {
                "end": 20.5160589569161,
                "pitch": 53,
                "start": 20.190979591836737,
                "velocity": 0.551659882068634
            },
            {
                "end": 20.249029478458052,
                "pitch": 69,
                "start": 20.01682993197279,
                "velocity": 0.48245710134506226
            },
            {
                "end": 20.190979591836737,
                "pitch": 53,
                "start": 19.864616326530612,
                "velocity": 0.37653613090515137
            },
            {
                "end": 21.11977777777778,
                "pitch": 41,
                "start": 19.864616326530612,
                "velocity": 0.5882673859596252
            },
            {
                "end": 19.864616326530612,
                "pitch": 41,
                "start": 19.71368662131519,
                "velocity": 0.6159811615943909
            },
            {
                "end": 19.55114693877551,
                "pitch": 69,
                "start": 19.202847619047617,
                "velocity": 0.42148730158805847
            },
            {
                "end": 19.202847619047617,
                "pitch": 53,
                "start": 19.040307936507936,
                "velocity": 0.440359503030777
            },
            {
                "end": 19.970390022675737,
                "pitch": 60,
                "start": 18.900988208616777,
                "velocity": 0.4050179719924927
            },
            {
                "end": 19.040307936507936,
                "pitch": 53,
                "start": 18.889378231292515,
                "velocity": 0.3640923500061035
            },
            {
                "end": 19.71368662131519,
                "pitch": 41,
                "start": 18.889378231292515,
                "velocity": 0.5690972208976746
            },
            {
                "end": 19.075137868480724,
                "pitch": 72,
                "start": 18.877768253968252,
                "velocity": 0.4771764874458313
            },
            {
                "end": 18.796498412698412,
                "pitch": 65,
                "start": 18.56429886621315,
                "velocity": 0.43878158926963806
            },
            {
                "end": 18.900988208616777,
                "pitch": 60,
                "start": 18.56429886621315,
                "velocity": 0.45069530606269836
            },
            {
                "end": 18.56429886621315,
                "pitch": 65,
                "start": 18.088289795918367,
                "velocity": 0.44996368885040283
            },
            {
                "end": 18.088289795918367,
                "pitch": 65,
                "start": 17.90253015873016,
                "velocity": 0.6508421897888184
            },
            {
                "end": 18.56429886621315,
                "pitch": 60,
                "start": 17.90253015873016,
                "velocity": 0.3490432798862457
            },
            {
                "end": 18.66878866213152,
                "pitch": 53,
                "start": 17.90253015873016,
                "velocity": 0.4069085121154785
            },
            {
                "end": 18.889378231292515,
                "pitch": 41,
                "start": 17.843196371882087,
                "velocity": 0.561497688293457
            },
            {
                "end": 17.90253015873016,
                "pitch": 65,
                "start": 17.680656689342403,
                "velocity": 0.717501699924469
            },
            {
                "end": 17.90253015873016,
                "pitch": 53,
                "start": 17.5877768707483,
                "velocity": 0.5353005528450012
            },
            {
                "end": 12.383939229024943,
                "pitch": 82,
                "start": 12.128519727891156,
                "velocity": 0.35854342579841614
            },
            {
                "end": 13.67264671201814,
                "pitch": 65,
                "start": 12.093689795918367,
                "velocity": 0.5933058857917786
            },
            {
                "end": 12.430379138321996,
                "pitch": 77,
                "start": 12.082079818594105,
                "velocity": 0.3887453079223633
            },
            {
                "end": 12.116909750566894,
                "pitch": 84,
                "start": 11.82537641723356,
                "velocity": 0.3775699734687805
            },
            {
                "end": 11.140387755102042,
                "pitch": 57,
                "start": 10.188369614512473,
                "velocity": 0.55799400806427
            },
            {
                "end": 10.188369614512473,
                "pitch": 58,
                "start": 9.02608798185941,
                "velocity": 0.5217102766036987
            },
            {
                "end": 8.805498412698412,
                "pitch": 50,
                "start": 8.573298866213152,
                "velocity": 0.33360087871551514
            },
            {
                "end": 9.130577777777777,
                "pitch": 62,
                "start": 8.561688888888888,
                "velocity": 0.5185142159461975
            },
            {
                "end": 9.618196825396826,
                "pitch": 46,
                "start": 8.561688888888888,
                "velocity": 0.5721359848976135
            },
            {
                "end": 9.02608798185941,
                "pitch": 58,
                "start": 8.550078911564626,
                "velocity": 0.5764957070350647
            },
            {
                "end": 8.399149206349206,
                "pitch": 60,
                "start": 7.689656689342404,
                "velocity": 0.41733449697494507
            },
            {
                "end": 8.143729705215419,
                "pitch": 53,
                "start": 6.667978684807256,
                "velocity": 0.5393407940864563
            },
            {
                "end": 7.271697505668935,
                "pitch": 60,
                "start": 6.656368707482994,
                "velocity": 0.5633581876754761
            },
            {
                "end": 6.888568253968254,
                "pitch": 64,
                "start": 6.482219047619048,
                "velocity": 0.41509562730789185
            },
            {
                "end": 6.667978684807256,
                "pitch": 53,
                "start": 6.041039909297052,
                "velocity": 0.6220806241035461
            },
            {
                "end": 6.482219047619048,
                "pitch": 65,
                "start": 5.9946,
                "velocity": 0.45863237977027893
            },
            {
                "end": 6.656368707482994,
                "pitch": 60,
                "start": 5.959770068027211,
                "velocity": 0.5717514753341675
            },
            {
                "end": 5.959770068027211,
                "pitch": 60,
                "start": 5.819166439909297,
                "velocity": 0.5503219962120056
            },
            {
                "end": 5.819166439909297,
                "pitch": 60,
                "start": 5.4360371882086165,
                "velocity": 0.4562641382217407
            },
            {
                "end": 6.14552970521542,
                "pitch": 72,
                "start": 5.412817233560091,
                "velocity": 0.44885683059692383
            },
            {
                "end": 5.29671746031746,
                "pitch": 58,
                "start": 5.052907936507936,
                "velocity": 0.44350409507751465
            },
            {
                "end": 4.100889795918367,
                "pitch": 62,
                "start": 3.403007256235828,
                "velocity": 0.495938241481781
            },
            {
                "end": 4.6001188208616774,
                "pitch": 46,
                "start": 3.403007256235828,
                "velocity": 0.6034189462661743
            },
            {
                "end": 4.472409070294784,
                "pitch": 58,
                "start": 3.3913972789115645,
                "velocity": 0.40736567974090576
            },
            {
                "end": 1.7647165532879818,
                "pitch": 65,
                "start": 0.9171882086167801,
                "velocity": 0.39139965176582336
            },
            {
                "end": 3.3101274376417233,
                "pitch": 60,
                "start": 0.8359183673469388,
                "velocity": 0.4870142638683319
            },
            {
                "end": 0.9752380952380952,
                "pitch": 52,
                "start": 0.8243083900226758,
                "velocity": 0.29806530475616455
            },
            {
                "end": 1.0216780045351475,
                "pitch": 72,
                "start": 0.8010884353741496,
                "velocity": 0.34812965989112854
            },
            {
                "end": 17.66904671201814,
                "pitch": 65,
                "start": 16.229409523809522,
                "velocity": 0.8035090565681458
            },
            {
                "end": 35.32776734693878,
                "pitch": 82,
                "start": 34.56150884353742,
                "velocity": 0.5878490209579468
            },
            {
                "end": 2.9850480725623583,
                "pitch": 53,
                "start": 0.9752380952380952,
                "velocity": 0.5581684112548828
            },
            {
                "end": 33.561766893424036,
                "pitch": 62,
                "start": 33.19024761904762,
                "velocity": 0.562364935874939
            },
            {
                "end": 0.9171882086167801,
                "pitch": 48,
                "start": 0.09287981859410431,
                "velocity": 0.6189724802970886
            },
            {
                "end": 0.8010884353741496,
                "pitch": 55,
                "start": 0.011609977324263039,
                "velocity": 0.5996012687683105
            },
            {
                "end": 11.12877777777778,
                "pitch": 64,
                "start": 10.049049886621315,
                "velocity": 0.5547663569450378
            },
            {
                "end": 44.98207800453515,
                "pitch": 67,
                "start": 44.7150485260771,
                "velocity": 0.39860066771507263
            },
            {
                "end": 34.30608934240363,
                "pitch": 82,
                "start": 33.85330022675737,
                "velocity": 0.45591551065444946
            },
            {
                "end": 53.73081043083901,
                "pitch": 41,
                "start": 52.75428843537415,
                "velocity": 0.4836634397506714
            },
            {
                "end": 31.00628798185941,
                "pitch": 69,
                "start": 30.73925850340136,
                "velocity": 0.47281211614608765
            },
            {
                "end": 50.535498866213146,
                "pitch": 69,
                "start": 50.07109977324263,
                "velocity": 0.42806410789489746
            },
            {
                "end": 13.695866666666667,
                "pitch": 58,
                "start": 11.82537641723356,
                "velocity": 0.4153633713722229
            },
            {
                "end": 44.494458956916105,
                "pitch": 67,
                "start": 44.35513922902494,
                "velocity": 0.5033448934555054
            },
            {
                "end": 49.53575691609977,
                "pitch": 29,
                "start": 48.66500861678005,
                "velocity": 0.49736344814300537
            },
            {
                "end": 24.593728798185943,
                "pitch": 34,
                "start": 22.78128843537415,
                "velocity": 0.4710392951965332
            },
            {
                "end": 25.69667664399093,
                "pitch": 70,
                "start": 24.373139229024943,
                "velocity": 0.46115073561668396
            },
            {
                "end": 57.1105977324263,
                "pitch": 65,
                "start": 55.135617687074834,
                "velocity": 0.4480167031288147
            },
            {
                "end": 45.946990022675735,
                "pitch": 58,
                "start": 45.70318049886621,
                "velocity": 0.4713329076766968
            },
            {
                "end": 11.279707482993198,
                "pitch": 69,
                "start": 10.652768707482995,
                "velocity": 0.4504818618297577
            },
            {
                "end": 28.543688888888887,
                "pitch": 41,
                "start": 27.963190022675736,
                "velocity": 0.5296758413314819
            },
            {
                "end": 58.22643945578231,
                "pitch": 65,
                "start": 57.366017233560086,
                "velocity": 0.49396052956581116
            },
            {
                "end": 49.663466666666665,
                "pitch": 41,
                "start": 48.630178684807255,
                "velocity": 0.42807474732398987
            },
            {
                "end": 47.17764761904762,
                "pitch": 29,
                "start": 46.26045941043084,
                "velocity": 0.42520415782928467
            },
            {
                "end": 1.9736961451247166,
                "pitch": 57,
                "start": 1.7647165532879818,
                "velocity": 0.44492727518081665
            },
            {
                "end": 53.09097777777778,
                "pitch": 57,
                "start": 52.556918820861675,
                "velocity": 0.397675484418869
            },
            {
                "end": 53.06775782312925,
                "pitch": 69,
                "start": 52.847168253968256,
                "velocity": 0.4885280430316925
            },
            {
                "end": 25.8011664399093,
                "pitch": 43,
                "start": 25.49930702947846,
                "velocity": 0.4709906280040741
            },
            {
                "end": 10.304469387755104,
                "pitch": 84,
                "start": 9.74590657596372,
                "velocity": 0.4064466953277588
            },
            {
                "end": 35.15361768707483,
                "pitch": 70,
                "start": 34.57311882086168,
                "velocity": 0.41960227489471436
            },
            {
                "end": 24.036449886621316,
                "pitch": 82,
                "start": 23.779746485260773,
                "velocity": 0.39903563261032104
            },
            {
                "end": 11.70927664399093,
                "pitch": 77,
                "start": 11.47707709750567,
                "velocity": 0.4425973892211914
            },
            {
                "end": 0.8243083900226758,
                "pitch": 60,
                "start": 0.5456689342403628,
                "velocity": 0.45750656723976135
            },
            {
                "end": 40.8115283446712,
                "pitch": 65,
                "start": 40.52127891156463,
                "velocity": 0.4098632335662842
            },
            {
                "end": 58.17999954648526,
                "pitch": 57,
                "start": 57.82009024943311,
                "velocity": 0.46393337845802307
            },
            {
                "end": 0.7198185941043084,
                "pitch": 52,
                "start": 0.23219954648526078,
                "velocity": 0.45574524998664856
            },
            {
                "end": 35.94438004535147,
                "pitch": 55,
                "start": 35.75862040816326,
                "velocity": 0.4869336187839508
            },
            {
                "end": 35.39742721088435,
                "pitch": 46,
                "start": 34.84014829931973,
                "velocity": 0.4146749675273895
            },
            {
                "end": 58.04067981859411,
                "pitch": 67,
                "start": 57.6343306122449,
                "velocity": 0.4460458755493164
            },
            {
                "end": 56.40238911564626,
                "pitch": 43,
                "start": 55.182057596371884,
                "velocity": 0.384944349527359
            },
            {
                "end": 20.748258503401363,
                "pitch": 69,
                "start": 20.5160589569161,
                "velocity": 0.4644134044647217
            },
            {
                "end": 23.23407755102041,
                "pitch": 62,
                "start": 22.81611836734694,
                "velocity": 0.39707615971565247
            },
            {
                "end": 7.2600875283446715,
                "pitch": 57,
                "start": 6.946618140589569,
                "velocity": 0.4168805480003357
            },
            {
                "end": 58.4818589569161,
                "pitch": 79,
                "start": 57.60982675736961,
                "velocity": 0.4057059586048126
            },
            {
                "end": 12.082079818594105,
                "pitch": 65,
                "start": 11.407417233560091,
                "velocity": 0.3639603853225708
            },
            {
                "end": 60.201419501133785,
                "pitch": 79,
                "start": 59.48031700680272,
                "velocity": 0.3859540522098541
            },
            {
                "end": 37.40723718820861,
                "pitch": 55,
                "start": 37.151817687074825,
                "velocity": 0.4581683874130249
            },
            {
                "end": 56.91322811791383,
                "pitch": 79,
                "start": 56.63458866213152,
                "velocity": 0.40880855917930603
            },
            {
                "end": 54.90341814058957,
                "pitch": 50,
                "start": 54.49706893424037,
                "velocity": 0.4380744695663452
            },
            {
                "end": 58.55151882086168,
                "pitch": 65,
                "start": 58.37736916099774,
                "velocity": 0.4178085923194885
            },
            {
                "end": 45.77284036281179,
                "pitch": 67,
                "start": 45.643846712018146,
                "velocity": 0.42977452278137207
            },
            {
                "end": 3.228857596371882,
                "pitch": 57,
                "start": 2.450989115646258,
                "velocity": 0.39913639426231384
            },
            {
                "end": 18.030239909297052,
                "pitch": 69,
                "start": 17.86641632653061,
                "velocity": 0.4491197466850281
            },
            {
                "end": 50.79091836734693,
                "pitch": 53,
                "start": 50.65159863945578,
                "velocity": 0.43667951226234436
            },
            {
                "end": 13.649426757369614,
                "pitch": 70,
                "start": 13.312737414965987,
                "velocity": 0.4386729300022125
            },
            {
                "end": 30.95984807256236,
                "pitch": 60,
                "start": 30.797308390022675,
                "velocity": 0.43970364332199097
            },
            {
                "end": 11.697666666666667,
                "pitch": 70,
                "start": 11.44224716553288,
                "velocity": 0.40749043226242065
            },
            {
                "end": 55.90316009070295,
                "pitch": 67,
                "start": 55.65935056689342,
                "velocity": 0.4227990210056305
            },
            {
                "end": 13.661036734693878,
                "pitch": 77,
                "start": 12.60452879818594,
                "velocity": 0.34334638714790344
            },
            {
                "end": 50.50066893424036,
                "pitch": 60,
                "start": 50.30329931972789,
                "velocity": 0.4079403877258301
            },
            {
                "end": 53.765640362811794,
                "pitch": 57,
                "start": 53.47410702947846,
                "velocity": 0.3898889720439911
            },
            {
                "end": 56.94805804988662,
                "pitch": 60,
                "start": 56.66941859410431,
                "velocity": 0.42084741592407227
            },
            {
                "end": 5.935266213151928,
                "pitch": 48,
                "start": 5.517307029478458,
                "velocity": 0.42252975702285767
            },
            {
                "end": 33.724306575963716,
                "pitch": 65,
                "start": 33.445667120181405,
                "velocity": 0.3493506908416748
            },
            {
                "end": 3.263687528344671,
                "pitch": 69,
                "start": 2.7760684807256233,
                "velocity": 0.3858242630958557
            },
            {
                "end": 4.6001188208616774,
                "pitch": 62,
                "start": 4.425969160997732,
                "velocity": 0.4211670458316803
            },
            {
                "end": 51.4294671201814,
                "pitch": 77,
                "start": 51.27853741496598,
                "velocity": 0.41937336325645447
            },
            {
                "end": 33.108977777777774,
                "pitch": 41,
                "start": 32.80711836734694,
                "velocity": 0.4313506782054901
            },
            {
                "end": 44.053279818594106,
                "pitch": 46,
                "start": 43.75142040816327,
                "velocity": 0.41893693804740906
            },
            {
                "end": 51.04633786848072,
                "pitch": 57,
                "start": 50.72125850340136,
                "velocity": 0.4049966633319855
            },
            {
                "end": 52.568528798185945,
                "pitch": 41,
                "start": 52.25505941043084,
                "velocity": 0.3805975019931793
            },
            {
                "end": 22.09629977324263,
                "pitch": 69,
                "start": 21.746716553287982,
                "velocity": 0.3553215265274048
            },
            {
                "end": 7.678046712018141,
                "pitch": 60,
                "start": 7.411017233560091,
                "velocity": 0.3767853081226349
            },
            {
                "end": 36.74546848072562,
                "pitch": 67,
                "start": 36.47843900226757,
                "velocity": 0.32686305046081543
            },
            {
                "end": 56.924838095238094,
                "pitch": 69,
                "start": 56.64619863945578,
                "velocity": 0.4195387661457062
            },
            {
                "end": 12.058859863945578,
                "pitch": 68,
                "start": 11.89503628117914,
                "velocity": 0.40839478373527527
            },
            {
                "end": 7.747706575963719,
                "pitch": 57,
                "start": 7.5619469387755105,
                "velocity": 0.41107460856437683
            },
            {
                "end": 55.077567800453515,
                "pitch": 58,
                "start": 54.82214829931973,
                "velocity": 0.4011532664299011
            },
            {
                "end": 13.602986848072563,
                "pitch": 61,
                "start": 13.185027664399094,
                "velocity": 0.3707156181335449
            },
            {
                "end": 54.961468027210884,
                "pitch": 43,
                "start": 54.752488435374154,
                "velocity": 0.4000186026096344
            },
            {
                "end": 59.340997278911566,
                "pitch": 65,
                "start": 59.062357823129254,
                "velocity": 0.42085587978363037
            },
            {
                "end": 19.73690657596372,
                "pitch": 72,
                "start": 19.481487074829932,
                "velocity": 0.3870152533054352
            },
            {
                "end": 54.45062902494331,
                "pitch": 43,
                "start": 53.97461995464853,
                "velocity": 0.39881622791290283
            },
            {
                "end": 3.8557963718820862,
                "pitch": 65,
                "start": 3.577156916099773,
                "velocity": 0.32793548703193665
            },
            {
                "end": 49.92017006802721,
                "pitch": 91,
                "start": 49.711190476190474,
                "velocity": 0.3288103938102722
            },
            {
                "end": 27.067937868480726,
                "pitch": 55,
                "start": 26.77768843537415,
                "velocity": 0.36496269702911377
            },
            {
                "end": 25.27871746031746,
                "pitch": 34,
                "start": 24.883978231292517,
                "velocity": 0.3723035454750061
            },
            {
                "end": 49.338387301587304,
                "pitch": 77,
                "start": 49.10618775510204,
                "velocity": 0.40071725845336914
            },
            {
                "end": 28.62495873015873,
                "pitch": 60,
                "start": 28.427589115646256,
                "velocity": 0.37332233786582947
            },
            {
                "end": 45.97020997732426,
                "pitch": 65,
                "start": 45.784450340136054,
                "velocity": 0.3190421462059021
            },
            {
                "end": 42.020249886621315,
                "pitch": 74,
                "start": 41.5661768707483,
                "velocity": 0.32948726415634155
            },
            {
                "end": 12.592918820861678,
                "pitch": 84,
                "start": 12.37232925170068,
                "velocity": 0.40144309401512146
            },
            {
                "end": 51.697780498866216,
                "pitch": 41,
                "start": 51.3365873015873,
                "velocity": 0.3839062750339508
            },
            {
                "end": 5.4012072562358275,
                "pitch": 65,
                "start": 4.542068934240363,
                "velocity": 0.3168405592441559
            },
            {
                "end": 58.72566848072562,
                "pitch": 57,
                "start": 58.53990884353742,
                "velocity": 0.38370609283447266
            },
            {
                "end": 48.28187936507937,
                "pitch": 77,
                "start": 47.84070022675737,
                "velocity": 0.3281984329223633
            },
            {
                "end": 23.303737414965987,
                "pitch": 65,
                "start": 23.025097959183675,
                "velocity": 0.33693042397499084
            },
            {
                "end": 23.65203673469388,
                "pitch": 53,
                "start": 23.2689074829932,
                "velocity": 0.33311283588409424
            },
            {
                "end": 10.362519274376417,
                "pitch": 69,
                "start": 10.188369614512473,
                "velocity": 0.3672194182872772
            },
            {
                "end": 26.568708843537415,
                "pitch": 64,
                "start": 26.417779138321997,
                "velocity": 0.37032991647720337
            },
            {
                "end": 57.57499682539682,
                "pitch": 48,
                "start": 57.087377777777775,
                "velocity": 0.3657720685005188
            },
            {
                "end": 27.11437777777778,
                "pitch": 64,
                "start": 26.81251836734694,
                "velocity": 0.3369554877281189
            },
            {
                "end": 56.0424798185941,
                "pitch": 79,
                "start": 55.53035691609978,
                "velocity": 0.3566046357154846
            },
            {
                "end": 51.732610430839,
                "pitch": 60,
                "start": 51.522346938775506,
                "velocity": 0.34575939178466797
            },
            {
                "end": 27.77614648526077,
                "pitch": 82,
                "start": 27.49750702947846,
                "velocity": 0.31012430787086487
            },
            {
                "end": 31.099167800453515,
                "pitch": 41,
                "start": 30.832138321995465,
                "velocity": 0.3253001272678375
            },
            {
                "end": 34.70082857142857,
                "pitch": 62,
                "start": 34.56150884353742,
                "velocity": 0.36915650963783264
            },
            {
                "end": 36.14174965986394,
                "pitch": 67,
                "start": 35.86311020408163,
                "velocity": 0.33521386981010437
            },
            {
                "end": 4.925198185941043,
                "pitch": 46,
                "start": 4.739438548752834,
                "velocity": 0.3206121325492859
            },
            {
                "end": 42.69362857142857,
                "pitch": 53,
                "start": 42.43820907029478,
                "velocity": 0.3284386098384857
            },
            {
                "end": 26.104309750566895,
                "pitch": 70,
                "start": 25.895330158730157,
                "velocity": 0.3457939624786377
            },
            {
                "end": 36.501658956916096,
                "pitch": 58,
                "start": 36.30428934240363,
                "velocity": 0.3265573978424072
            },
            {
                "end": 13.637816780045352,
                "pitch": 82,
                "start": 13.47527709750567,
                "velocity": 0.3463596701622009
            },
            {
                "end": 32.05246984126984,
                "pitch": 67,
                "start": 31.88993015873016,
                "velocity": 0.29237696528434753
            },
            {
                "end": 59.282947392290254,
                "pitch": 74,
                "start": 59.120407709750566,
                "velocity": 0.31286364793777466
            },
            {
                "end": 51.54556689342403,
                "pitch": 48,
                "start": 51.359807256235825,
                "velocity": 0.288277804851532
            },
            {
                "end": 1.3815873015873017,
                "pitch": 69,
                "start": 1.230657596371882,
                "velocity": 0.314890056848526
            }
        ],
        "piano": [
            {
                "end": 56.46043900226757,
                "pitch": 65,
                "start": 56.25145941043084,
                "velocity": 0.34422048926353455
            },
            {
                "end": 53.765640362811794,
                "pitch": 41,
                "start": 53.28834739229025,
                "velocity": 0.5963388085365295
            },
            {
                "end": 53.28834739229025,
                "pitch": 41,
                "start": 52.8007283446712,
                "velocity": 0.6332274675369263
            },
            {
                "end": 52.8007283446712,
                "pitch": 41,
                "start": 52.661408616780044,
                "velocity": 0.658678412437439
            },
            {
                "end": 52.661408616780044,
                "pitch": 41,
                "start": 52.4872589569161,
                "velocity": 0.5154392719268799
            },
            {
                "end": 52.40598911564626,
                "pitch": 29,
                "start": 51.18565759637188,
                "velocity": 0.49684908986091614
            },
            {
                "end": 51.464297052154194,
                "pitch": 53,
                "start": 50.82574829931973,
                "velocity": 0.4583945870399475
            },
            {
                "end": 50.82574829931973,
                "pitch": 53,
                "start": 50.6748185941043,
                "velocity": 0.49414512515068054
            },
            {
                "end": 50.6748185941043,
                "pitch": 53,
                "start": 50.477448979591834,
                "velocity": 0.34775733947753906
            },
            {
                "end": 50.477448979591834,
                "pitch": 53,
                "start": 49.58219682539683,
                "velocity": 0.33432677388191223
            },
            {
                "end": 49.233897505668935,
                "pitch": 41,
                "start": 49.09457777777778,
                "velocity": 0.5112627148628235
            },
            {
                "end": 49.09457777777778,
                "pitch": 41,
                "start": 48.88559818594104,
                "velocity": 0.5157029628753662
            },
            {
                "end": 48.88559818594104,
                "pitch": 41,
                "start": 48.746278458049886,
                "velocity": 0.5242617726325989
            },
            {
                "end": 48.746278458049886,
                "pitch": 41,
                "start": 48.59534875283447,
                "velocity": 0.29257631301879883
            },
            {
                "end": 47.316967346938775,
                "pitch": 41,
                "start": 47.166037641723356,
                "velocity": 0.43372994661331177
            },
            {
                "end": 47.23569750566893,
                "pitch": 29,
                "start": 46.70163854875283,
                "velocity": 0.5938790440559387
            },
            {
                "end": 45.993429931972784,
                "pitch": 46,
                "start": 45.71479047619047,
                "velocity": 0.5104515552520752
            },
            {
                "end": 45.98181995464852,
                "pitch": 58,
                "start": 45.67867664399093,
                "velocity": 0.31805846095085144
            },
            {
                "end": 46.016649886621316,
                "pitch": 62,
                "start": 45.66706666666667,
                "velocity": 0.3641124367713928
            },
            {
                "end": 45.3419873015873,
                "pitch": 62,
                "start": 45.17944761904762,
                "velocity": 0.433339923620224
            },
            {
                "end": 43.42505714285714,
                "pitch": 53,
                "start": 43.07675782312925,
                "velocity": 0.49923044443130493
            },
            {
                "end": 43.07675782312925,
                "pitch": 53,
                "start": 42.60074875283447,
                "velocity": 0.45751917362213135
            },
            {
                "end": 42.60074875283447,
                "pitch": 53,
                "start": 42.36854920634921,
                "velocity": 0.5193423628807068
            },
            {
                "end": 41.22948752834468,
                "pitch": 29,
                "start": 41.00889795918368,
                "velocity": 0.4324885308742523
            },
            {
                "end": 39.71890657596372,
                "pitch": 57,
                "start": 39.21967755102041,
                "velocity": 0.37640896439552307
            },
            {
                "end": 38.95264807256236,
                "pitch": 41,
                "start": 38.24443945578231,
                "velocity": 0.39730745553970337
            },
            {
                "end": 36.91961814058956,
                "pitch": 43,
                "start": 36.23462947845805,
                "velocity": 0.4813532829284668
            },
            {
                "end": 36.339119274376415,
                "pitch": 55,
                "start": 36.1533596371882,
                "velocity": 0.3772042393684387
            },
            {
                "end": 34.79370839002268,
                "pitch": 70,
                "start": 34.375749206349205,
                "velocity": 0.4209803342819214
            },
            {
                "end": 34.73565850340136,
                "pitch": 82,
                "start": 34.36413922902494,
                "velocity": 0.5760772824287415
            },
            {
                "end": 31.064337868480724,
                "pitch": 53,
                "start": 30.843748299319728,
                "velocity": 0.34307757019996643
            },
            {
                "end": 31.0411179138322,
                "pitch": 60,
                "start": 30.832138321995465,
                "velocity": 0.2959158718585968
            },
            {
                "end": 30.843748299319728,
                "pitch": 53,
                "start": 30.518668934240363,
                "velocity": 0.42370012402534485
            },
            {
                "end": 30.39095918367347,
                "pitch": 69,
                "start": 30.193589569160995,
                "velocity": 0.3888552486896515
            },
            {
                "end": 30.36773922902494,
                "pitch": 65,
                "start": 30.181979591836733,
                "velocity": 0.389660120010376
            },
            {
                "end": 30.379349206349204,
                "pitch": 53,
                "start": 30.181979591836733,
                "velocity": 0.5157228708267212
            },
            {
                "end": 30.031049886621314,
                "pitch": 53,
                "start": 29.34477732426304,
                "velocity": 0.4147118628025055
            },
            {
                "end": 29.066137868480727,
                "pitch": 69,
                "start": 28.89198820861678,
                "velocity": 0.4898165166378021
            },
            {
                "end": 29.0429179138322,
                "pitch": 57,
                "start": 28.89198820861678,
                "velocity": 0.40896812081336975
            },
            {
                "end": 27.50911700680272,
                "pitch": 55,
                "start": 27.11437777777778,
                "velocity": 0.4458542764186859
            },
            {
                "end": 24.8259283446712,
                "pitch": 82,
                "start": 24.605338775510205,
                "velocity": 0.5414764285087585
            },
            {
                "end": 24.74465850340136,
                "pitch": 70,
                "start": 24.605338775510205,
                "velocity": 0.4099749028682709
            },
            {
                "end": 24.46601904761905,
                "pitch": 82,
                "start": 24.04805986394558,
                "velocity": 0.4770849049091339
            },
            {
                "end": 24.303479365079365,
                "pitch": 58,
                "start": 24.04805986394558,
                "velocity": 0.419772744178772
            },
            {
                "end": 23.89713015873016,
                "pitch": 65,
                "start": 23.744916553287982,
                "velocity": 0.4587324261665344
            },
            {
                "end": 23.885520181405898,
                "pitch": 62,
                "start": 23.73330657596372,
                "velocity": 0.33270183205604553
            },
            {
                "end": 21.177827664399096,
                "pitch": 41,
                "start": 20.98045804988662,
                "velocity": 0.5066349506378174
            },
            {
                "end": 21.026897959183675,
                "pitch": 79,
                "start": 20.875968253968257,
                "velocity": 0.36658257246017456
            },
            {
                "end": 20.98045804988662,
                "pitch": 41,
                "start": 20.841138321995466,
                "velocity": 0.5408543348312378
            },
            {
                "end": 18.78488843537415,
                "pitch": 60,
                "start": 18.56429886621315,
                "velocity": 0.327897846698761
            },
            {
                "end": 18.2972693877551,
                "pitch": 65,
                "start": 18.088289795918367,
                "velocity": 0.46821847558021545
            },
            {
                "end": 17.83158639455782,
                "pitch": 53,
                "start": 17.610996825396825,
                "velocity": 0.27577412128448486
            },
            {
                "end": 16.368729251700678,
                "pitch": 48,
                "start": 13.975790022675737,
                "velocity": 0.7980199456214905
            },
            {
                "end": 14.5214589569161,
                "pitch": 64,
                "start": 13.95257006802721,
                "velocity": 0.4292304813861847
            },
            {
                "end": 13.95257006802721,
                "pitch": 65,
                "start": 13.811966439909297,
                "velocity": 0.5087824463844299
            },
            {
                "end": 13.975790022675737,
                "pitch": 48,
                "start": 13.70747664399093,
                "velocity": 0.7820021510124207
            },
            {
                "end": 12.952828117913832,
                "pitch": 65,
                "start": 12.082079818594105,
                "velocity": 0.41697895526885986
            },
            {
                "end": 11.372587301587302,
                "pitch": 73,
                "start": 11.12877777777778,
                "velocity": 0.5660982728004456
            },
            {
                "end": 10.002609977324264,
                "pitch": 58,
                "start": 8.90998820861678,
                "velocity": 0.7124804258346558
            },
            {
                "end": 9.084137868480726,
                "pitch": 62,
                "start": 8.561688888888888,
                "velocity": 0.48939573764801025
            },
            {
                "end": 8.90998820861678,
                "pitch": 58,
                "start": 8.561688888888888,
                "velocity": 0.3630440831184387
            },
            {
                "end": 7.759316553287982,
                "pitch": 65,
                "start": 7.283307482993197,
                "velocity": 0.3301564157009125
            },
            {
                "end": 6.5286589569161,
                "pitch": 65,
                "start": 6.133919727891157,
                "velocity": 0.6949856281280518
            },
            {
                "end": 3.6700367346938774,
                "pitch": 46,
                "start": 3.4378371882086167,
                "velocity": 0.519566535949707
            },
            {
                "end": 2.4742090702947843,
                "pitch": 65,
                "start": 2.334889342403628,
                "velocity": 0.5576745271682739
            },
            {
                "end": 2.3000594104308387,
                "pitch": 64,
                "start": 2.1375197278911564,
                "velocity": 0.4423410892486572
            },
            {
                "end": 2.1375197278911564,
                "pitch": 65,
                "start": 1.3467573696145125,
                "velocity": 0.4969794750213623
            },
            {
                "end": 1.1145578231292517,
                "pitch": 80,
                "start": 0.8475283446712019,
                "velocity": 0.49538475275039673
            },
            {
                "end": 1.0681179138321995,
                "pitch": 83,
                "start": 0.8359183673469388,
                "velocity": 0.4902511537075043
            },
            {
                "end": 4.611728798185941,
                "pitch": 58,
                "start": 3.7977464852607707,
                "velocity": 0.6327850818634033
            },
            {
                "end": 6.1223097505668935,
                "pitch": 65,
                "start": 5.935266213151928,
                "velocity": 0.6505401730537415
            },
            {
                "end": 26.97505804988662,
                "pitch": 55,
                "start": 26.336509297052153,
                "velocity": 0.4598378539085388
            },
            {
                "end": 29.333167346938776,
                "pitch": 53,
                "start": 28.880378231292518,
                "velocity": 0.5023289918899536
            },
            {
                "end": 58.145169614512476,
                "pitch": 57,
                "start": 57.79687029478458,
                "velocity": 0.4937559962272644
            },
            {
                "end": 36.223019501133784,
                "pitch": 43,
                "start": 35.73411655328798,
                "velocity": 0.5879907011985779
            },
            {
                "end": 8.526858956916099,
                "pitch": 60,
                "start": 7.411017233560091,
                "velocity": 0.4918120205402374
            },
            {
                "end": 39.567976870748296,
                "pitch": 29,
                "start": 38.29087936507936,
                "velocity": 0.6031455993652344
            },
            {
                "end": 2.834118367346939,
                "pitch": 72,
                "start": 2.5090390022675737,
                "velocity": 0.42009487748146057
            },
            {
                "end": 8.515248979591837,
                "pitch": 57,
                "start": 7.969580045351474,
                "velocity": 0.5276029706001282
            },
            {
                "end": 46.69002857142857,
                "pitch": 29,
                "start": 46.03986984126984,
                "velocity": 0.585799515247345
            },
            {
                "end": 5.308327437641723,
                "pitch": 65,
                "start": 4.4143591836734695,
                "velocity": 0.48589393496513367
            },
            {
                "end": 17.216257596371882,
                "pitch": 65,
                "start": 16.241019501133785,
                "velocity": 0.4977780878543854
            },
            {
                "end": 42.740068480725625,
                "pitch": 41,
                "start": 41.00889795918368,
                "velocity": 0.4718918800354004
            },
            {
                "end": 3.321737414965986,
                "pitch": 72,
                "start": 3.159197732426304,
                "velocity": 0.5200945734977722
            },
            {
                "end": 3.252077551020408,
                "pitch": 57,
                "start": 3.1011478458049884,
                "velocity": 0.5240440368652344
            },
            {
                "end": 6.667978684807256,
                "pitch": 77,
                "start": 5.71467664399093,
                "velocity": 0.42338839173316956
            },
            {
                "end": 27.963190022675736,
                "pitch": 55,
                "start": 27.76453650793651,
                "velocity": 0.494619220495224
            },
            {
                "end": 45.70318049886621,
                "pitch": 46,
                "start": 43.506326984126986,
                "velocity": 0.4479621648788452
            },
            {
                "end": 31.1339977324263,
                "pitch": 41,
                "start": 30.77408843537415,
                "velocity": 0.48957231640815735
            },
            {
                "end": 11.105557823129253,
                "pitch": 57,
                "start": 10.513448979591837,
                "velocity": 0.49263885617256165
            },
            {
                "end": 11.302927437641724,
                "pitch": 69,
                "start": 10.780478458049888,
                "velocity": 0.45559510588645935
            },
            {
                "end": 2.2071795918367347,
                "pitch": 69,
                "start": 1.7298866213151927,
                "velocity": 0.4051070511341095
            },
            {
                "end": 7.248477551020408,
                "pitch": 60,
                "start": 6.087479818594105,
                "velocity": 0.4610610604286194
            },
            {
                "end": 9.850396371882086,
                "pitch": 65,
                "start": 9.385997278911564,
                "velocity": 0.40922755002975464
            },
            {
                "end": 7.8289764172335605,
                "pitch": 53,
                "start": 6.79568843537415,
                "velocity": 0.45695340633392334
            },
            {
                "end": 29.77434648526077,
                "pitch": 65,
                "start": 29.62341678004535,
                "velocity": 0.49323925375938416
            },
            {
                "end": 3.3101274376417233,
                "pitch": 69,
                "start": 2.4045492063492064,
                "velocity": 0.4287065863609314
            },
            {
                "end": 18.912598185941043,
                "pitch": 41,
                "start": 18.610738775510203,
                "velocity": 0.5175932049751282
            },
            {
                "end": 40.231029478458055,
                "pitch": 41,
                "start": 39.11518775510204,
                "velocity": 0.5038623213768005
            },
            {
                "end": 28.55529886621315,
                "pitch": 53,
                "start": 28.056069841269842,
                "velocity": 0.3741131126880646
            },
            {
                "end": 50.66320861678004,
                "pitch": 41,
                "start": 49.722800453514736,
                "velocity": 0.47254467010498047
            },
            {
                "end": 5.528917006802721,
                "pitch": 60,
                "start": 5.343157369614512,
                "velocity": 0.5054198503494263
            },
            {
                "end": 7.074327891156463,
                "pitch": 64,
                "start": 6.586708843537415,
                "velocity": 0.3613561689853668
            },
            {
                "end": 8.422369160997732,
                "pitch": 69,
                "start": 8.213389569160997,
                "velocity": 0.49021658301353455
            },
            {
                "end": 3.3681773242630384,
                "pitch": 77,
                "start": 3.1243678004535145,
                "velocity": 0.40429139137268066
            },
            {
                "end": 4.576898866213152,
                "pitch": 62,
                "start": 4.367919274376417,
                "velocity": 0.4564068615436554
            },
            {
                "end": 44.34352925170068,
                "pitch": 53,
                "start": 44.07649977324263,
                "velocity": 0.44376543164253235
            },
            {
                "end": 61.09538775510204,
                "pitch": 60,
                "start": 60.75869841269841,
                "velocity": 0.4442155063152313
            },
            {
                "end": 8.422369160997732,
                "pitch": 77,
                "start": 8.25982947845805,
                "velocity": 0.47855690121650696
            },
            {
                "end": 10.339299319727893,
                "pitch": 60,
                "start": 10.037439909297053,
                "velocity": 0.43098196387290955
            },
            {
                "end": 7.434237188208617,
                "pitch": 69,
                "start": 7.097547845804989,
                "velocity": 0.41302764415740967
            },
            {
                "end": 8.155339682539681,
                "pitch": 65,
                "start": 7.945076190476191,
                "velocity": 0.42691171169281006
            },
            {
                "end": 41.113387755102046,
                "pitch": 53,
                "start": 39.59119682539683,
                "velocity": 0.37641212344169617
            },
            {
                "end": 6.517048979591837,
                "pitch": 53,
                "start": 6.26162947845805,
                "velocity": 0.4353662431240082
            },
            {
                "end": 12.22139954648526,
                "pitch": 61,
                "start": 12.082079818594105,
                "velocity": 0.44267967343330383
            },
            {
                "end": 3.194027664399093,
                "pitch": 60,
                "start": 3.0314879818594105,
                "velocity": 0.4325800836086273
            },
            {
                "end": 2.5670888888888888,
                "pitch": 53,
                "start": 1.555736961451247,
                "velocity": 0.3704286813735962
            },
            {
                "end": 45.237497505668934,
                "pitch": 34,
                "start": 44.14615963718821,
                "velocity": 0.3661937415599823
            },
            {
                "end": 50.4890589569161,
                "pitch": 57,
                "start": 50.34973922902494,
                "velocity": 0.43887653946876526
            },
            {
                "end": 7.770926530612245,
                "pitch": 69,
                "start": 7.608386848072563,
                "velocity": 0.43484658002853394
            },
            {
                "end": 30.47222902494331,
                "pitch": 41,
                "start": 30.298079365079364,
                "velocity": 0.4677143692970276
            },
            {
                "end": 49.769240362811786,
                "pitch": 29,
                "start": 48.75788843537415,
                "velocity": 0.40858080983161926
            },
            {
                "end": 12.999268027210885,
                "pitch": 58,
                "start": 12.743848526077098,
                "velocity": 0.4255535900592804
            },
            {
                "end": 36.91961814058956,
                "pitch": 60,
                "start": 36.664198639455776,
                "velocity": 0.41246339678764343
            },
            {
                "end": 14.951028117913832,
                "pitch": 67,
                "start": 14.498239002267573,
                "velocity": 0.41892579197883606
            },
            {
                "end": 29.379607256235825,
                "pitch": 60,
                "start": 29.19384761904762,
                "velocity": 0.42280876636505127
            },
            {
                "end": 7.678046712018141,
                "pitch": 77,
                "start": 7.492287074829932,
                "velocity": 0.41038477420806885
            },
            {
                "end": 58.238049433106575,
                "pitch": 65,
                "start": 57.98262993197279,
                "velocity": 0.43569663166999817
            },
            {
                "end": 38.685618594104305,
                "pitch": 53,
                "start": 38.37214920634921,
                "velocity": 0.37114033102989197
            },
            {
                "end": 60.97928798185941,
                "pitch": 67,
                "start": 60.73547845804988,
                "velocity": 0.36730048060417175
            },
            {
                "end": 20.829528344671203,
                "pitch": 41,
                "start": 20.5160589569161,
                "velocity": 0.33462202548980713
            },
            {
                "end": 1.811156462585034,
                "pitch": 72,
                "start": 1.6486167800453515,
                "velocity": 0.4063008427619934
            },
            {
                "end": 4.91358820861678,
                "pitch": 84,
                "start": 4.542068934240363,
                "velocity": 0.36601829528808594
            },
            {
                "end": 43.40183718820862,
                "pitch": 41,
                "start": 42.98387800453515,
                "velocity": 0.35911834239959717
            },
            {
                "end": 58.27287936507937,
                "pitch": 60,
                "start": 57.854920181405895,
                "velocity": 0.39432910084724426
            },
            {
                "end": 15.299327437641724,
                "pitch": 60,
                "start": 15.02068798185941,
                "velocity": 0.40894150733947754
            },
            {
                "end": 9.908446258503401,
                "pitch": 77,
                "start": 9.687856689342404,
                "velocity": 0.4006557762622833
            },
            {
                "end": 58.81854829931973,
                "pitch": 60,
                "start": 58.65600861678005,
                "velocity": 0.3952067792415619
            },
            {
                "end": 31.05272789115646,
                "pitch": 69,
                "start": 30.704428571428572,
                "velocity": 0.3451038599014282
            },
            {
                "end": 35.60640680272109,
                "pitch": 46,
                "start": 35.17683764172336,
                "velocity": 0.36336883902549744
            },
            {
                "end": 54.82214829931973,
                "pitch": 62,
                "start": 54.65960861678005,
                "velocity": 0.39105892181396484
            },
            {
                "end": 42.50786893424036,
                "pitch": 60,
                "start": 42.240839455782314,
                "velocity": 0.3657892942428589
            },
            {
                "end": 10.884968253968255,
                "pitch": 60,
                "start": 10.652768707482995,
                "velocity": 0.36903566122055054
            },
            {
                "end": 8.364319274376417,
                "pitch": 72,
                "start": 8.224999546485261,
                "velocity": 0.38251766562461853
            },
            {
                "end": 11.662836734693878,
                "pitch": 65,
                "start": 11.500297052154195,
                "velocity": 0.3567245900630951
            },
            {
                "end": 53.00970793650794,
                "pitch": 69,
                "start": 52.87038820861678,
                "velocity": 0.35897383093833923
            },
            {
                "end": 12.337499319727891,
                "pitch": 46,
                "start": 12.17495963718821,
                "velocity": 0.365885466337204
            },
            {
                "end": 40.776698412698416,
                "pitch": 41,
                "start": 40.63737868480726,
                "velocity": 0.36543211340904236
            },
            {
                "end": 14.858148299319728,
                "pitch": 64,
                "start": 14.660778684807257,
                "velocity": 0.3612154722213745
            },
            {
                "end": 9.084137868480726,
                "pitch": 77,
                "start": 8.87515827664399,
                "velocity": 0.35033246874809265
            },
            {
                "end": 12.267839455782314,
                "pitch": 84,
                "start": 12.128519727891156,
                "velocity": 0.364107221364975
            },
            {
                "end": 47.22408752834467,
                "pitch": 60,
                "start": 47.07315782312925,
                "velocity": 0.35472172498703003
            },
            {
                "end": 10.118709750566895,
                "pitch": 72,
                "start": 9.944560090702948,
                "velocity": 0.3142372965812683
            },
            {
                "end": 53.25351746031746,
                "pitch": 53,
                "start": 52.951658049886625,
                "velocity": 0.3243807554244995
            },
            {
                "end": 3.6119868480725623,
                "pitch": 34,
                "start": 3.4378371882086167,
                "velocity": 0.3525541126728058
            },
            {
                "end": 58.22643945578231,
                "pitch": 69,
                "start": 58.00584988662132,
                "velocity": 0.3111439347267151
            },
            {
                "end": 56.18179954648526,
                "pitch": 67,
                "start": 56.007649886621316,
                "velocity": 0.3276856541633606
            },
            {
                "end": 46.666808616780045,
                "pitch": 41,
                "start": 46.41138911564626,
                "velocity": 0.32139742374420166
            },
            {
                "end": 2.323279365079365,
                "pitch": 72,
                "start": 2.1375197278911564,
                "velocity": 0.2754034996032715
            }
        ],
        "vocals": [
            {
                "end": 61.11860770975056,
                "pitch": 57,
                "start": 60.863188208616776,
                "velocity": 0.4370238184928894
            },
            {
                "end": 61.11860770975056,
                "pitch": 62,
                "start": 60.68903854875283,
                "velocity": 0.3845043182373047
            },
            {
                "end": 60.863188208616776,
                "pitch": 57,
                "start": 60.68903854875283,
                "velocity": 0.48664626479148865
            },
            {
                "end": 59.597700680272105,
                "pitch": 57,
                "start": 59.25972743764172,
                "velocity": 0.41905489563941956
            },
            {
                "end": 59.25972743764172,
                "pitch": 57,
                "start": 59.05074784580499,
                "velocity": 0.5636873245239258
            },
            {
                "end": 58.17999954648526,
                "pitch": 57,
                "start": 57.645940589569165,
                "velocity": 0.6686522364616394
            },
            {
                "end": 57.645940589569165,
                "pitch": 57,
                "start": 57.49372698412698,
                "velocity": 0.5288931131362915
            },
            {
                "end": 56.72746848072562,
                "pitch": 67,
                "start": 56.5765387755102,
                "velocity": 0.39943960309028625
            },
            {
                "end": 57.645940589569165,
                "pitch": 55,
                "start": 56.56492879818594,
                "velocity": 0.6306102871894836
            },
            {
                "end": 56.56492879818594,
                "pitch": 57,
                "start": 56.390779138321996,
                "velocity": 0.680370032787323
            },
            {
                "end": 56.35594920634921,
                "pitch": 58,
                "start": 56.216629478458046,
                "velocity": 0.570340633392334
            },
            {
                "end": 56.228239455782315,
                "pitch": 60,
                "start": 56.054089795918365,
                "velocity": 0.6827027797698975
            },
            {
                "end": 55.937990022675734,
                "pitch": 74,
                "start": 55.58840680272109,
                "velocity": 0.45096784830093384
            },
            {
                "end": 56.01925986394558,
                "pitch": 62,
                "start": 55.576796825396826,
                "velocity": 0.711723268032074
            },
            {
                "end": 55.5535768707483,
                "pitch": 60,
                "start": 55.40264716553288,
                "velocity": 0.6129546761512756
            },
            {
                "end": 55.54196689342404,
                "pitch": 65,
                "start": 54.973078004535154,
                "velocity": 0.40995293855667114
            },
            {
                "end": 55.42586712018141,
                "pitch": 58,
                "start": 54.74087845804989,
                "velocity": 0.6944249868392944
            },
            {
                "end": 54.74087845804989,
                "pitch": 58,
                "start": 54.07910975056689,
                "velocity": 0.7933800220489502
            },
            {
                "end": 54.07910975056689,
                "pitch": 58,
                "start": 53.93979002267574,
                "velocity": 0.47269538044929504
            },
            {
                "end": 53.97461995464853,
                "pitch": 60,
                "start": 53.67276054421769,
                "velocity": 0.7544585466384888
            },
            {
                "end": 53.68437052154195,
                "pitch": 58,
                "start": 53.52054693877551,
                "velocity": 0.687738835811615
            },
            {
                "end": 53.52054693877551,
                "pitch": 58,
                "start": 53.29995736961451,
                "velocity": 0.5673108696937561
            },
            {
                "end": 52.85877823129252,
                "pitch": 53,
                "start": 52.243449433106576,
                "velocity": 0.7122917175292969
            },
            {
                "end": 52.15056961451247,
                "pitch": 55,
                "start": 52.011249886621314,
                "velocity": 0.6053147912025452
            },
            {
                "end": 51.99963990929705,
                "pitch": 53,
                "start": 51.66295056689342,
                "velocity": 0.6976991295814514
            },
            {
                "end": 51.66295056689342,
                "pitch": 53,
                "start": 51.20887755102041,
                "velocity": 0.6598244905471802
            },
            {
                "end": 51.1159977324263,
                "pitch": 48,
                "start": 50.88379818594104,
                "velocity": 0.6632956862449646
            },
            {
                "end": 50.88379818594104,
                "pitch": 48,
                "start": 50.68642857142857,
                "velocity": 0.6097615957260132
            },
            {
                "end": 50.65159863945578,
                "pitch": 52,
                "start": 50.3613492063492,
                "velocity": 0.7118139863014221
            },
            {
                "end": 49.873730158730154,
                "pitch": 53,
                "start": 48.688228571428574,
                "velocity": 0.7434372305870056
            },
            {
                "end": 48.537298866213156,
                "pitch": 48,
                "start": 48.25865941043084,
                "velocity": 0.6450598835945129
            },
            {
                "end": 48.11933968253968,
                "pitch": 52,
                "start": 47.94519002267574,
                "velocity": 0.6894078850746155
            },
            {
                "end": 47.363407256235824,
                "pitch": 53,
                "start": 46.48104897959183,
                "velocity": 0.6482040882110596
            },
            {
                "end": 46.48104897959183,
                "pitch": 53,
                "start": 46.24884943310657,
                "velocity": 0.817023754119873
            },
            {
                "end": 46.376559183673464,
                "pitch": 69,
                "start": 46.14435963718821,
                "velocity": 0.45962753891944885
            },
            {
                "end": 46.376559183673464,
                "pitch": 57,
                "start": 46.12113968253968,
                "velocity": 0.44543182849884033
            },
            {
                "end": 46.24884943310657,
                "pitch": 52,
                "start": 46.09791972789115,
                "velocity": 0.7070416212081909
            },
            {
                "end": 45.98181995464852,
                "pitch": 48,
                "start": 45.74962040816327,
                "velocity": 0.7006890773773193
            },
            {
                "end": 45.45808707482993,
                "pitch": 52,
                "start": 45.191057596371884,
                "velocity": 0.7015427947044373
            },
            {
                "end": 45.06334784580499,
                "pitch": 55,
                "start": 43.57598684807256,
                "velocity": 0.8114005327224731
            },
            {
                "end": 43.35539727891156,
                "pitch": 48,
                "start": 43.11158775510204,
                "velocity": 0.5904080271720886
            },
            {
                "end": 43.11158775510204,
                "pitch": 48,
                "start": 42.949048072562356,
                "velocity": 0.7046209573745728
            },
            {
                "end": 42.902608163265306,
                "pitch": 52,
                "start": 42.76328843537415,
                "velocity": 0.6616119146347046
            },
            {
                "end": 42.76328843537415,
                "pitch": 52,
                "start": 42.565918820861675,
                "velocity": 0.7777572274208069
            },
            {
                "end": 42.38015918367347,
                "pitch": 53,
                "start": 41.67066666666667,
                "velocity": 0.6974469423294067
            },
            {
                "end": 41.67066666666667,
                "pitch": 53,
                "start": 40.98567800453515,
                "velocity": 0.8561432361602783
            },
            {
                "end": 40.823138321995465,
                "pitch": 48,
                "start": 40.56771882086168,
                "velocity": 0.6580456495285034
            },
            {
                "end": 40.56771882086168,
                "pitch": 48,
                "start": 40.38195918367347,
                "velocity": 0.6199525594711304
            },
            {
                "end": 40.33551927437642,
                "pitch": 52,
                "start": 40.19619954648526,
                "velocity": 0.6475037932395935
            },
            {
                "end": 40.231029478458055,
                "pitch": 71,
                "start": 39.964000000000006,
                "velocity": 0.38736265897750854
            },
            {
                "end": 40.19619954648526,
                "pitch": 52,
                "start": 39.964000000000006,
                "velocity": 0.7576818466186523
            },
            {
                "end": 39.81307029478458,
                "pitch": 53,
                "start": 38.743668480725624,
                "velocity": 0.696262538433075
            },
            {
                "end": 38.743668480725624,
                "pitch": 53,
                "start": 38.39536916099773,
                "velocity": 0.8503276705741882
            },
            {
                "end": 38.15155963718821,
                "pitch": 60,
                "start": 37.930970068027214,
                "velocity": 0.27753058075904846
            },
            {
                "end": 38.209609523809526,
                "pitch": 48,
                "start": 37.930970068027214,
                "velocity": 0.666233241558075
            },
            {
                "end": 37.79165034013605,
                "pitch": 52,
                "start": 37.62782675736961,
                "velocity": 0.6889857053756714
            },
            {
                "end": 37.17503764172336,
                "pitch": 57,
                "start": 37.01249795918367,
                "velocity": 0.6913341879844666
            },
            {
                "end": 37.01249795918367,
                "pitch": 57,
                "start": 36.826738321995464,
                "velocity": 0.38569289445877075
            },
            {
                "end": 36.96605804988662,
                "pitch": 55,
                "start": 36.19979954648526,
                "velocity": 0.6827136278152466
            },
            {
                "end": 36.176579591836735,
                "pitch": 57,
                "start": 35.955990022675735,
                "velocity": 0.6622819304466248
            },
            {
                "end": 35.86311020408163,
                "pitch": 60,
                "start": 35.68767664399093,
                "velocity": 0.715508222579956
            },
            {
                "end": 35.68767664399093,
                "pitch": 60,
                "start": 35.38581723356009,
                "velocity": 0.7919626832008362
            },
            {
                "end": 35.38581723356009,
                "pitch": 60,
                "start": 35.21166757369615,
                "velocity": 0.7892950177192688
            },
            {
                "end": 35.22327755102041,
                "pitch": 58,
                "start": 35.049127891156466,
                "velocity": 0.7017698287963867
            },
            {
                "end": 35.049127891156466,
                "pitch": 58,
                "start": 32.85355827664399,
                "velocity": 0.8235852718353271
            },
            {
                "end": 32.86516825396825,
                "pitch": 60,
                "start": 32.725848526077094,
                "velocity": 0.6625021696090698
            },
            {
                "end": 32.47042902494331,
                "pitch": 53,
                "start": 32.15695963718821,
                "velocity": 0.7321301698684692
            },
            {
                "end": 32.15695963718821,
                "pitch": 52,
                "start": 31.93637006802721,
                "velocity": 0.7530604600906372
            },
            {
                "end": 31.760936507936506,
                "pitch": 55,
                "start": 31.62161678004535,
                "velocity": 0.5829458832740784
            },
            {
                "end": 31.43585714285714,
                "pitch": 55,
                "start": 31.15721768707483,
                "velocity": 0.4505443274974823
            },
            {
                "end": 31.180437641723355,
                "pitch": 57,
                "start": 31.0411179138322,
                "velocity": 0.6352851986885071
            },
            {
                "end": 31.00628798185941,
                "pitch": 55,
                "start": 30.843748299319728,
                "velocity": 0.6632179021835327
            },
            {
                "end": 30.843748299319728,
                "pitch": 55,
                "start": 30.704428571428572,
                "velocity": 0.7254446148872375
            },
            {
                "end": 30.727648526077097,
                "pitch": 57,
                "start": 30.55349886621315,
                "velocity": 0.6860764026641846
            },
            {
                "end": 30.507058956916097,
                "pitch": 54,
                "start": 30.35612925170068,
                "velocity": 0.2705014646053314
            },
            {
                "end": 30.36773922902494,
                "pitch": 52,
                "start": 30.216809523809523,
                "velocity": 0.6450000405311584
            },
            {
                "end": 29.797566439909296,
                "pitch": 53,
                "start": 29.5769768707483,
                "velocity": 0.6196059584617615
            },
            {
                "end": 29.5769768707483,
                "pitch": 52,
                "start": 29.39121723356009,
                "velocity": 0.7472538948059082
            },
            {
                "end": 29.217067573696145,
                "pitch": 55,
                "start": 29.05452789115646,
                "velocity": 0.6275520920753479
            },
            {
                "end": 29.05452789115646,
                "pitch": 56,
                "start": 28.915208163265305,
                "velocity": 0.29456642270088196
            },
            {
                "end": 28.880378231292518,
                "pitch": 55,
                "start": 28.74105850340136,
                "velocity": 0.6196215748786926
            },
            {
                "end": 28.74105850340136,
                "pitch": 55,
                "start": 28.578518820861678,
                "velocity": 0.7236274480819702
            },
            {
                "end": 28.601738775510203,
                "pitch": 57,
                "start": 28.462419047619047,
                "velocity": 0.6533198356628418
            },
            {
                "end": 28.415979138321994,
                "pitch": 55,
                "start": 28.253439455782313,
                "velocity": 0.6071799397468567
            },
            {
                "end": 28.20699954648526,
                "pitch": 57,
                "start": 28.044459863945576,
                "velocity": 0.7177857756614685
            },
            {
                "end": 27.90514013605442,
                "pitch": 53,
                "start": 27.706486621315193,
                "velocity": 0.6695266366004944
            },
            {
                "end": 27.184037641723357,
                "pitch": 55,
                "start": 26.81251836734694,
                "velocity": 0.6677837371826172
            },
            {
                "end": 26.81251836734694,
                "pitch": 55,
                "start": 26.557098866213153,
                "velocity": 0.7987024188041687
            },
            {
                "end": 26.557098866213153,
                "pitch": 55,
                "start": 26.382949206349206,
                "velocity": 0.7979030013084412
            },
            {
                "end": 26.220409523809522,
                "pitch": 57,
                "start": 25.837280272108842,
                "velocity": 0.743664562702179
            },
            {
                "end": 25.837280272108842,
                "pitch": 58,
                "start": 25.708286621315192,
                "velocity": 0.6447061896324158
            },
            {
                "end": 25.708286621315192,
                "pitch": 57,
                "start": 25.51091700680272,
                "velocity": 0.7722055315971375
            },
            {
                "end": 25.557356916099774,
                "pitch": 55,
                "start": 25.371597278911565,
                "velocity": 0.6133438348770142
            },
            {
                "end": 25.34837732426304,
                "pitch": 53,
                "start": 25.104567800453516,
                "velocity": 0.7038263082504272
            },
            {
                "end": 25.03490793650794,
                "pitch": 55,
                "start": 24.872368253968254,
                "velocity": 0.6751318573951721
            },
            {
                "end": 24.89558820861678,
                "pitch": 57,
                "start": 24.721438548752836,
                "velocity": 0.7581342458724976
            },
            {
                "end": 24.698218594104308,
                "pitch": 58,
                "start": 22.514258956916102,
                "velocity": 0.8296142220497131
            },
            {
                "end": 22.46781904761905,
                "pitch": 60,
                "start": 22.31688934240363,
                "velocity": 0.7180703282356262
            },
            {
                "end": 22.154349659863946,
                "pitch": 53,
                "start": 21.86410022675737,
                "velocity": 0.7559463977813721
            },
            {
                "end": 21.86410022675737,
                "pitch": 52,
                "start": 21.66544671201814,
                "velocity": 0.7312178015708923
            },
            {
                "end": 21.3635873015873,
                "pitch": 57,
                "start": 21.20104761904762,
                "velocity": 0.6971694827079773
            },
            {
                "end": 21.177827664399096,
                "pitch": 55,
                "start": 21.00367800453515,
                "velocity": 0.6827214360237122
            },
            {
                "end": 20.934018140589572,
                "pitch": 57,
                "start": 20.725038548752835,
                "velocity": 0.6791567802429199
            },
            {
                "end": 20.678598639455785,
                "pitch": 55,
                "start": 20.5160589569161,
                "velocity": 0.7003474831581116
            },
            {
                "end": 20.5160589569161,
                "pitch": 55,
                "start": 20.330299319727892,
                "velocity": 0.49640658497810364
            },
            {
                "end": 20.365129251700683,
                "pitch": 57,
                "start": 20.202589569161,
                "velocity": 0.7391923069953918
            },
            {
                "end": 19.44665714285714,
                "pitch": 53,
                "start": 19.24928752834467,
                "velocity": 0.44605666399002075
            },
            {
                "end": 19.24928752834467,
                "pitch": 52,
                "start": 19.040307936507936,
                "velocity": 0.8174561858177185
            },
            {
                "end": 18.842938321995465,
                "pitch": 55,
                "start": 18.703618594104306,
                "velocity": 0.5849491357803345
            },
            {
                "end": 18.726838548752834,
                "pitch": 57,
                "start": 18.58751882086168,
                "velocity": 0.6430821418762207
            },
            {
                "end": 18.56429886621315,
                "pitch": 55,
                "start": 18.424979138321994,
                "velocity": 0.5858635902404785
            },
            {
                "end": 18.424979138321994,
                "pitch": 55,
                "start": 18.250829478458048,
                "velocity": 0.6357520222663879
            },
            {
                "end": 18.274049433106576,
                "pitch": 57,
                "start": 18.111509750566892,
                "velocity": 0.7090737223625183
            },
            {
                "end": 17.78514648526077,
                "pitch": 55,
                "start": 17.622606802721087,
                "velocity": 0.6828708648681641
            },
            {
                "end": 17.610996825396825,
                "pitch": 53,
                "start": 17.43684716553288,
                "velocity": 0.6942234635353088
            },
            {
                "end": 15.35737732426304,
                "pitch": 55,
                "start": 15.194837641723355,
                "velocity": 0.505329430103302
            },
            {
                "end": 15.194837641723355,
                "pitch": 57,
                "start": 15.032297959183673,
                "velocity": 0.5535699129104614
            },
            {
                "end": 14.974248072562357,
                "pitch": 58,
                "start": 14.730438548752835,
                "velocity": 0.6639989018440247
            },
            {
                "end": 14.660778684807257,
                "pitch": 60,
                "start": 14.289259410430839,
                "velocity": 0.6792899370193481
            },
            {
                "end": 13.9874,
                "pitch": 65,
                "start": 13.82357641723356,
                "velocity": 0.6793078780174255
            },
            {
                "end": 13.684256689342403,
                "pitch": 64,
                "start": 13.417227210884354,
                "velocity": 0.7333399057388306
            },
            {
                "end": 13.417227210884354,
                "pitch": 64,
                "start": 12.976048072562358,
                "velocity": 0.7784155607223511
            },
            {
                "end": 12.964438095238096,
                "pitch": 61,
                "start": 12.465209070294785,
                "velocity": 0.7048248648643494
            },
            {
                "end": 12.465209070294785,
                "pitch": 61,
                "start": 12.22139954648526,
                "velocity": 0.7781765460968018
            },
            {
                "end": 12.22139954648526,
                "pitch": 61,
                "start": 11.86020634920635,
                "velocity": 0.6922751069068909
            },
            {
                "end": 11.86020634920635,
                "pitch": 61,
                "start": 11.523517006802722,
                "velocity": 0.47349265217781067
            },
            {
                "end": 10.083879818594106,
                "pitch": 72,
                "start": 9.908446258503401,
                "velocity": 0.35674765706062317
            },
            {
                "end": 11.221657596371882,
                "pitch": 60,
                "start": 9.908446258503401,
                "velocity": 0.7059736847877502
            },
            {
                "end": 9.908446258503401,
                "pitch": 60,
                "start": 9.664636734693877,
                "velocity": 0.49382323026657104
            },
            {
                "end": 9.327947392290248,
                "pitch": 77,
                "start": 9.188627664399093,
                "velocity": 0.38523852825164795
            },
            {
                "end": 9.536926984126984,
                "pitch": 58,
                "start": 9.188627664399093,
                "velocity": 0.6004745364189148
            },
            {
                "end": 8.979648072562357,
                "pitch": 62,
                "start": 8.747448526077097,
                "velocity": 0.6647170186042786
            },
            {
                "end": 8.49202902494331,
                "pitch": 62,
                "start": 8.283049433106575,
                "velocity": 0.6970110535621643
            },
            {
                "end": 8.283049433106575,
                "pitch": 62,
                "start": 8.027629931972788,
                "velocity": 0.5516968369483948
            },
            {
                "end": 8.004409977324263,
                "pitch": 64,
                "start": 7.8289764172335605,
                "velocity": 0.6470142602920532
            },
            {
                "end": 7.17881768707483,
                "pitch": 65,
                "start": 6.969838095238095,
                "velocity": 0.632638692855835
            },
            {
                "end": 6.830518367346939,
                "pitch": 77,
                "start": 6.667978684807256,
                "velocity": 0.3475845754146576
            },
            {
                "end": 6.969838095238095,
                "pitch": 65,
                "start": 6.656368707482994,
                "velocity": 0.6309964060783386
            },
            {
                "end": 6.656368707482994,
                "pitch": 65,
                "start": 6.435779138321996,
                "velocity": 0.8005547523498535
            },
            {
                "end": 6.029429931972789,
                "pitch": 64,
                "start": 5.517307029478458,
                "velocity": 0.7009743452072144
            },
            {
                "end": 5.4360371882086165,
                "pitch": 60,
                "start": 5.041297959183673,
                "velocity": 0.7405146956443787
            },
            {
                "end": 5.041297959183673,
                "pitch": 60,
                "start": 4.692998639455782,
                "velocity": 0.7429821491241455
            },
            {
                "end": 4.692998639455782,
                "pitch": 60,
                "start": 4.425969160997732,
                "velocity": 0.469824880361557
            },
            {
                "end": 4.321479365079365,
                "pitch": 58,
                "start": 3.973180045351474,
                "velocity": 0.725037157535553
            },
            {
                "end": 3.7745265306122446,
                "pitch": 62,
                "start": 3.5539369614512473,
                "velocity": 0.6839509606361389
            },
            {
                "end": 3.321737414965986,
                "pitch": 62,
                "start": 3.1011478458049884,
                "velocity": 0.6166538000106812
            },
            {
                "end": 3.1011478458049884,
                "pitch": 62,
                "start": 2.7760684807256233,
                "velocity": 0.5325571298599243
            },
            {
                "end": 2.3813292517006803,
                "pitch": 64,
                "start": 2.1607396825396825,
                "velocity": 0.6609165668487549
            },
            {
                "end": 2.091079818594104,
                "pitch": 65,
                "start": 1.8343764172335602,
                "velocity": 0.694409191608429
            },
            {
                "end": 1.8343764172335602,
                "pitch": 65,
                "start": 1.5441269841269842,
                "velocity": 0.754719614982605
            },
            {
                "end": 1.5441269841269842,
                "pitch": 65,
                "start": 1.3815873015873017,
                "velocity": 0.3475395739078522
            },
            {
                "end": 19.02869795918367,
                "pitch": 52,
                "start": 18.877768253968252,
                "velocity": 0.7133241891860962
            },
            {
                "end": 45.17944761904762,
                "pitch": 52,
                "start": 45.040127891156466,
                "velocity": 0.7013506293296814
            },
            {
                "end": 20.01682993197279,
                "pitch": 53,
                "start": 19.877510204081634,
                "velocity": 0.6522457003593445
            },
            {
                "end": 11.51190702947846,
                "pitch": 61,
                "start": 11.221657596371882,
                "velocity": 0.6736901998519897
            },
            {
                "end": 21.65383673469388,
                "pitch": 53,
                "start": 21.514517006802723,
                "velocity": 0.6706554889678955
            },
            {
                "end": 6.238409523809524,
                "pitch": 65,
                "start": 6.029429931972789,
                "velocity": 0.67716383934021
            },
            {
                "end": 31.62161678004535,
                "pitch": 57,
                "start": 31.470687074829932,
                "velocity": 0.6276884078979492
            },
            {
                "end": 29.379607256235825,
                "pitch": 53,
                "start": 29.24028752834467,
                "velocity": 0.6583157777786255
            },
            {
                "end": 33.21346757369614,
                "pitch": 70,
                "start": 33.0393179138322,
                "velocity": 0.41707032918930054
            },
            {
                "end": 26.615148752834468,
                "pitch": 67,
                "start": 26.42938911564626,
                "velocity": 0.3977528214454651
            },
            {
                "end": 23.419837188208618,
                "pitch": 70,
                "start": 22.78128843537415,
                "velocity": 0.3402237296104431
            },
            {
                "end": 10.687598639455784,
                "pitch": 72,
                "start": 10.281249433106577,
                "velocity": 0.3282530903816223
            },
            {
                "end": 60.73547845804988,
                "pitch": 60,
                "start": 60.422009070294784,
                "velocity": 0.30985668301582336
            },
            {
                "end": 43.9604,
                "pitch": 89,
                "start": 43.599206802721085,
                "velocity": 0.3213954567909241
            },
            {
                "end": 10.385739229024944,
                "pitch": 88,
                "start": 10.188369614512473,
                "velocity": 0.34505921602249146
            },
            {
                "end": 57.157037641723356,
                "pitch": 67,
                "start": 56.994497959183676,
                "velocity": 0.34957146644592285
            },
            {
                "end": 10.734038548752835,
                "pitch": 88,
                "start": 10.536668934240364,
                "velocity": 0.3283941149711609
            }
        ]
    },
    "song_id": "Awaargi - 1 Min Music - Aditya A",
    "stems": {
        "bass": "results/Awaargi - 1 Min Music - Aditya A/htdemucs_6s/Awaargi - 1 Min Music - Aditya A/bass.wav",
        "drums": "results/Awaargi - 1 Min Music - Aditya A/htdemucs_6s/Awaargi - 1 Min Music - Aditya A/drums.wav",
        "guitar": "results/Awaargi - 1 Min Music - Aditya A/htdemucs_6s/Awaargi - 1 Min Music - Aditya A/guitar.wav",
        "other": "results/Awaargi - 1 Min Music - Aditya A/htdemucs_6s/Awaargi - 1 Min Music - Aditya A/other.wav",
        "piano": "results/Awaargi - 1 Min Music - Aditya A/htdemucs_6s/Awaargi - 1 Min Music - Aditya A/piano.wav",
        "vocals": "results/Awaargi - 1 Min Music - Aditya A/htdemucs_6s/Awaargi - 1 Min Music - Aditya A/vocals.wav"
    }
}